<?xml version="1.0" standalone="no"?>
<!DOCTYPE svg PUBLIC "-//W3C//DTD SVG 20010904//EN"
 "http://www.w3.org/TR/2001/REC-SVG-20010904/DTD/svg10.dtd">
<svg version="1.0" xmlns="http://www.w3.org/2000/svg"
 width="697.000000pt" height="296.000000pt" viewBox="0 0 697.000000 296.000000"
 preserveAspectRatio="xMidYMid meet">
<metadata>
Created by potrace 1.14, written by Peter Selinger 2001-2017
</metadata>
<g transform="translate(0.000000,296.000000) scale(0.100000,-0.100000)"
fill="#000000" stroke="none">
<path d="M1971 2923 c12 -21 28 -45 34 -53 7 -8 54 -89 106 -179 91 -160 188
-368 189 -403 0 -15 9 -18 49 -18 l50 0 -21 48 c-11 26 -24 52 -28 57 -5 6
-18 34 -29 62 -11 29 -43 100 -71 158 -28 58 -48 110 -45 115 3 5 -4 19 -15
30 -11 11 -18 25 -15 30 3 4 -12 48 -34 97 l-38 88 -78 3 -77 3 23 -38z m159
-79 c0 -8 -4 -12 -10 -9 -5 3 -10 10 -10 16 0 5 5 9 10 9 6 0 10 -7 10 -16z"/>
<path d="M2820 2955 c0 -2 20 -35 44 -72 93 -145 267 -467 309 -571 16 -39 19
-42 57 -42 l40 0 -17 38 c-50 110 -200 394 -272 515 l-82 137 -39 0 c-22 0
-40 -2 -40 -5z"/>
<path d="M202 2880 l-12 -34 25 24 c25 24 33 36 16 26 -5 -4 -11 -1 -13 6 -3
7 -10 -3 -16 -22z"/>
<path d="M1591 2878 c11 -15 22 -28 24 -28 2 0 0 13 -6 28 -5 16 -16 29 -24
29 -11 0 -9 -7 6 -29z"/>
<path d="M166 2815 c-9 -14 -13 -25 -8 -25 5 0 14 11 20 25 6 14 10 25 8 25
-2 0 -11 -11 -20 -25z"/>
<path d="M1652 2759 c6 -16 12 -28 14 -26 5 5 -13 57 -20 57 -3 0 0 -14 6 -31z"/>
<path d="M830 2738 c-45 -12 -106 -72 -121 -116 -28 -83 17 -157 119 -196 37
-14 72 -26 78 -26 6 0 33 -7 60 -15 92 -27 121 -82 67 -125 -26 -20 -37 -22
-128 -18 -66 3 -111 10 -131 21 -36 19 -44 14 -62 -40 -10 -31 -10 -31 41 -54
44 -20 69 -24 157 -24 58 0 116 4 129 7 45 14 103 59 117 93 19 46 18 125 -2
153 -21 31 -92 74 -106 66 -6 -4 -8 -3 -5 2 3 5 -36 20 -86 33 -117 29 -137
42 -137 85 0 39 16 55 67 66 34 8 161 -7 204 -24 11 -5 20 4 34 34 11 24 15
44 9 50 -33 32 -227 50 -304 28z"/>
<path d="M1670 2665 c0 -14 2 -25 4 -25 2 0 6 11 8 25 3 14 1 25 -3 25 -5 0
-9 -11 -9 -25z"/>
<path d="M1683 2540 c0 -30 2 -43 4 -27 2 15 2 39 0 55 -2 15 -4 2 -4 -28z"/>
<path d="M122 2540 c0 -14 2 -19 5 -12 2 6 2 18 0 25 -3 6 -5 1 -5 -13z"/>
<path d="M1721 2444 c0 -11 3 -14 6 -6 3 7 2 16 -1 19 -3 4 -6 -2 -5 -13z"/>
<path d="M21 2414 c0 -11 3 -14 6 -6 3 7 2 16 -1 19 -3 4 -6 -2 -5 -13z"/>
<path d="M167 2323 c-5 -26 20 -109 30 -99 3 2 -1 15 -8 27 -7 13 -11 40 -11
61 2 44 -3 50 -11 11z"/>
<path d="M1711 2324 c0 -11 3 -14 6 -6 3 7 2 16 -1 19 -3 4 -6 -2 -5 -13z"/>
<path d="M2987 2122 c6 -4 13 -23 16 -42 l4 -35 1 37 c2 25 7 38 20 41 9 3 1
5 -18 6 -19 0 -30 -3 -23 -7z"/>
<path d="M3731 2083 c1 -27 4 -38 6 -26 2 13 13 24 26 26 l22 4 -22 2 c-13 0
-23 7 -23 15 0 8 10 17 23 19 19 4 18 4 -5 6 -27 1 -28 -1 -27 -46z"/>
<path d="M3883 2090 c0 -25 2 -35 4 -22 2 12 2 32 0 45 -2 12 -4 2 -4 -23z"/>
<path d="M4610 2113 c0 -11 3 -14 8 -7 4 6 14 14 22 17 10 4 8 6 -7 6 -16 1
-23 -5 -23 -16z"/>
<path d="M4803 2085 c0 -27 2 -38 4 -22 2 15 2 37 0 50 -2 12 -4 0 -4 -28z"/>
<path d="M5563 2085 c0 -27 2 -38 4 -22 2 15 2 37 0 50 -2 12 -4 0 -4 -28z"/>
<path d="M5672 2085 c0 -33 2 -43 7 -30 8 19 8 19 19 0 6 -11 12 -15 12 -8 0
6 -6 18 -14 26 -8 7 -16 25 -19 38 -2 13 -5 2 -5 -26z"/>
<path d="M6242 2088 l-2 -48 33 1 c29 2 29 2 5 6 -24 4 -27 10 -31 46 l-4 42
-1 -47z"/>
<path d="M252 2096 c6 -14 15 -26 20 -26 10 0 -7 36 -22 45 -6 4 -5 -5 2 -19z"/>
<path d="M4763 2085 c0 -22 2 -30 4 -17 2 12 2 30 0 40 -3 9 -5 -1 -4 -23z"/>
<path d="M1530 2100 c0 -5 4 -10 9 -10 6 0 13 5 16 10 3 6 -1 10 -9 10 -9 0
-16 -4 -16 -10z"/>
<path d="M3041 2094 c0 -11 3 -14 6 -6 3 7 2 16 -1 19 -3 4 -6 -2 -5 -13z"/>
<path d="M3287 2103 c-9 -9 -9 -51 1 -56 4 -3 7 10 7 29 0 19 0 34 -1 34 0 0
-4 -3 -7 -7z"/>
<path d="M3836 2097 c3 -10 9 -15 12 -12 3 3 0 11 -7 18 -10 9 -11 8 -5 -6z"/>
<path d="M4050 2100 c0 -5 5 -10 11 -10 5 0 7 5 4 10 -3 6 -8 10 -11 10 -2 0
-4 -4 -4 -10z"/>
<path d="M4163 2075 c0 -22 2 -30 4 -17 2 12 2 30 0 40 -3 9 -5 -1 -4 -23z"/>
<path d="M4234 2096 c-3 -8 -4 -23 -2 -33 3 -11 6 -6 9 15 6 34 2 42 -7 18z"/>
<path d="M4722 2088 c7 -15 15 -23 17 -17 2 6 -4 18 -13 27 -15 15 -15 15 -4
-10z"/>
<path d="M4850 2106 c0 -2 7 -7 16 -10 8 -3 12 -2 9 4 -6 10 -25 14 -25 6z"/>
<path d="M4901 2094 c0 -11 3 -14 6 -6 3 7 2 16 -1 19 -3 4 -6 -2 -5 -13z"/>
<path d="M4930 2099 c0 -5 5 -7 10 -4 6 3 10 8 10 11 0 2 -4 4 -10 4 -5 0 -10
-5 -10 -11z"/>
<path d="M5073 2075 c0 -22 2 -30 4 -17 2 12 2 30 0 40 -3 9 -5 -1 -4 -23z"/>
<path d="M5125 2100 c-8 -13 3 -30 18 -30 7 0 6 4 -3 10 -13 9 -13 11 0 20 9
6 10 10 3 10 -6 0 -15 -4 -18 -10z"/>
<path d="M5633 2075 c0 -22 2 -30 4 -17 2 12 2 30 0 40 -3 9 -5 -1 -4 -23z"/>
<path d="M6321 2094 c0 -11 3 -14 6 -6 3 7 2 16 -1 19 -3 4 -6 -2 -5 -13z"/>
<path d="M6420 2081 c0 -17 4 -32 8 -35 4 -2 6 11 4 30 -5 42 -12 45 -12 5z"/>
<path d="M3111 2084 c0 -11 3 -14 6 -6 3 7 2 16 -1 19 -3 4 -6 -2 -5 -13z"/>
<path d="M3140 2085 c0 -8 4 -15 10 -15 5 0 7 7 4 15 -4 8 -8 15 -10 15 -2 0
-4 -7 -4 -15z"/>
<path d="M3176 2085 c-3 -8 -1 -15 4 -15 6 0 10 7 10 15 0 8 -2 15 -4 15 -2 0
-6 -7 -10 -15z"/>
<path d="M3952 2075 c0 -16 2 -22 5 -12 2 9 2 23 0 30 -3 6 -5 -1 -5 -18z"/>
<path d="M4273 2060 c0 -25 2 -35 4 -22 2 12 2 32 0 45 -2 12 -4 2 -4 -23z"/>
<path d="M4832 2080 c0 -14 2 -19 5 -12 2 6 2 18 0 25 -3 6 -5 1 -5 -13z"/>
<path d="M5040 2089 c0 -6 -9 -9 -20 -6 -12 3 -20 0 -20 -8 0 -8 9 -11 25 -7
14 2 25 11 25 18 0 8 -2 14 -5 14 -3 0 -5 -5 -5 -11z"/>
<path d="M3212 2070 c0 -14 2 -19 5 -12 2 6 2 18 0 25 -3 6 -5 1 -5 -13z"/>
<path d="M3325 2080 c3 -6 12 -10 20 -10 7 0 16 -5 18 -10 3 -6 4 -5 3 1 -1 7
-12 16 -25 20 -14 6 -20 5 -16 -1z"/>
<path d="M3801 2074 c0 -11 3 -14 6 -6 3 7 2 16 -1 19 -3 4 -6 -2 -5 -13z"/>
<path d="M4122 2065 c0 -16 2 -22 5 -12 2 9 2 23 0 30 -3 6 -5 -1 -5 -18z"/>
<path d="M4202 2065 c0 -16 2 -22 5 -12 2 9 2 23 0 30 -3 6 -5 -1 -5 -18z"/>
<path d="M4612 2065 c0 -16 2 -22 5 -12 2 9 2 23 0 30 -3 6 -5 -1 -5 -18z"/>
<path d="M4638 2083 c7 -3 16 -2 19 1 4 3 -2 6 -13 5 -11 0 -14 -3 -6 -6z"/>
<path d="M4681 2074 c0 -11 3 -14 6 -6 3 7 2 16 -1 19 -3 4 -6 -2 -5 -13z"/>
<path d="M6467 2079 c7 -7 15 -10 18 -7 3 3 -2 9 -12 12 -14 6 -15 5 -6 -5z"/>
<path d="M5743 2073 c9 -2 23 -2 30 0 6 3 -1 5 -18 5 -16 0 -22 -2 -12 -5z"/>
<path d="M3050 2056 c0 -9 5 -16 10 -16 6 0 10 4 10 9 0 6 -4 13 -10 16 -5 3
-10 -1 -10 -9z"/>
<path d="M3096 2057 c3 -10 9 -15 12 -12 3 3 0 11 -7 18 -10 9 -11 8 -5 -6z"/>
<path d="M3911 2054 c0 -11 3 -14 6 -6 3 7 2 16 -1 19 -3 4 -6 -2 -5 -13z"/>
<path d="M4076 2057 c3 -10 9 -15 12 -12 3 3 0 11 -7 18 -10 9 -11 8 -5 -6z"/>
<path d="M4956 2057 c3 -10 9 -15 12 -12 3 3 0 11 -7 18 -10 9 -11 8 -5 -6z"/>
<path d="M3157 2049 c7 -7 15 -10 18 -7 3 3 -2 9 -12 12 -14 6 -15 5 -6 -5z"/>
<path d="M4030 2050 c0 -5 5 -10 10 -10 6 0 10 5 10 10 0 6 -4 10 -10 10 -5 0
-10 -4 -10 -10z"/>
<path d="M4910 2050 c0 -5 5 -10 10 -10 6 0 10 5 10 10 0 6 -4 10 -10 10 -5 0
-10 -4 -10 -10z"/>
<path d="M1495 2033 c-10 -24 -14 -43 -9 -43 7 0 25 52 21 57 -3 2 -8 -4 -12
-14z"/>
<path d="M5588 2043 c7 -3 16 -2 19 1 4 3 -2 6 -13 5 -11 0 -14 -3 -6 -6z"/>
<path d="M2964 1964 c-19 -15 -19 -15 1 -10 18 5 20 1 19 -36 -1 -27 -7 -46
-19 -54 -16 -12 -14 -13 18 -12 21 1 37 5 37 10 0 4 -4 8 -10 8 -5 0 -10 25
-10 55 0 59 -5 64 -36 39z"/>
<path d="M3079 1973 c0 -5 0 -32 1 -62 1 -33 -2 -51 -9 -47 -5 4 -12 2 -16 -4
-4 -6 10 -10 37 -9 30 0 37 3 24 8 -17 6 -19 16 -17 64 1 36 -2 57 -8 57 -6 0
-11 -3 -12 -7z"/>
<path d="M3214 1964 c-18 -13 -17 -14 7 -8 40 9 42 -17 3 -58 -27 -29 -30 -37
-18 -42 26 -10 66 -7 59 5 -4 6 -13 8 -21 5 -24 -9 -24 10 2 37 29 31 31 53 5
66 -13 7 -23 6 -37 -5z"/>
<path d="M3301 1915 c2 -63 19 -95 19 -35 0 39 20 39 44 0 9 -17 22 -27 28
-24 8 5 7 11 -3 18 -8 6 -19 21 -26 33 -10 18 -8 24 13 44 13 12 22 25 19 28
-3 2 -21 -11 -40 -29 l-35 -34 0 32 c0 18 -5 32 -10 32 -7 0 -10 -26 -9 -65z"/>
<path d="M3811 1966 c-10 -12 -8 -13 8 -9 12 3 21 9 21 14 0 14 -16 11 -29 -5z"/>
<path d="M3986 1972 c-2 -4 -1 -14 3 -21 11 -17 1 -61 -13 -61 -22 0 -25 12
-9 39 l15 26 -21 -24 c-28 -31 -27 -51 4 -51 16 0 25 -6 25 -15 0 -8 4 -15 9
-15 5 0 9 29 10 65 1 58 -8 81 -23 57z"/>
<path d="M4061 1966 c-9 -11 -6 -12 14 -8 36 6 33 -25 -5 -61 -40 -38 -38 -47
10 -47 22 0 40 5 40 10 0 6 -14 10 -32 10 l-32 0 32 33 c37 38 40 52 13 67
-25 13 -26 13 -40 -4z"/>
<path d="M4161 1971 c-8 -6 -12 -18 -8 -31 3 -12 0 -31 -6 -42 -10 -16 -9 -22
7 -34 11 -8 23 -14 26 -14 3 0 15 6 26 14 15 12 17 18 8 33 -8 13 -8 23 0 36
9 15 7 21 -8 33 -23 16 -26 17 -45 5z m36 -17 c8 -21 -13 -42 -28 -27 -13 13
-5 43 11 43 6 0 13 -7 17 -16z m6 -58 c7 -17 -18 -40 -33 -31 -5 3 -10 15 -10
26 0 23 35 27 43 5z"/>
<path d="M4680 1964 c-18 -11 -20 -13 -5 -10 18 5 20 2 17 -44 -3 -35 -8 -50
-20 -53 -10 -3 3 -5 28 -5 25 0 37 2 28 5 -13 3 -18 18 -20 63 l-3 58 -25 -14z"/>
<path d="M4777 1962 c-25 -27 -22 -89 4 -103 18 -9 25 -8 41 8 11 11 16 26 13
35 -7 19 -35 32 -35 18 0 -6 5 -10 10 -10 6 0 10 -9 10 -20 0 -13 -7 -20 -19
-20 -16 0 -19 7 -19 46 0 43 1 46 24 41 20 -3 22 -2 13 9 -15 18 -23 18 -42
-4z"/>
<path d="M4926 1967 c-15 -11 -17 -17 -7 -35 6 -12 20 -22 30 -22 24 0 34 -25
15 -40 -11 -10 -17 -10 -29 0 -9 7 -18 10 -21 7 -9 -9 33 -27 50 -21 20 8 29
34 16 49 -6 7 -8 20 -4 29 6 15 -11 46 -25 46 -4 0 -15 -6 -25 -13z m39 -7 c3
-5 2 -16 -2 -24 -11 -20 -38 -3 -30 18 7 18 23 21 32 6z"/>
<path d="M5011 1915 c1 -36 6 -65 10 -65 5 0 9 11 9 24 0 39 19 41 50 5 15
-19 31 -31 34 -28 3 3 -8 21 -24 41 l-30 37 27 25 c15 14 23 26 16 26 -6 0
-20 -10 -30 -22 -10 -13 -25 -28 -34 -35 -13 -10 -14 -7 -11 22 3 22 0 35 -7
35 -8 0 -11 -22 -10 -65z"/>
<path d="M5505 1964 c-18 -13 -17 -14 13 -8 43 9 43 -17 0 -58 -26 -24 -29
-31 -17 -39 19 -12 69 -11 69 1 0 6 -14 10 -32 10 l-32 0 32 33 c37 38 40 52
13 67 -24 12 -22 13 -46 -6z"/>
<path d="M5646 1955 c-4 -14 -3 -31 1 -38 5 -8 10 -1 13 18 3 19 11 30 22 30
9 0 20 4 24 8 4 4 -6 7 -23 7 -25 0 -32 -5 -37 -25z"/>
<path d="M5768 1973 c-26 -6 -34 -44 -13 -59 9 -7 24 -10 32 -7 11 4 14 1 11
-13 -2 -12 -12 -19 -26 -18 -12 0 -22 -3 -22 -8 0 -15 43 -8 56 10 30 39 4
104 -38 95z m32 -33 c0 -13 -7 -20 -20 -20 -13 0 -20 7 -20 20 0 13 7 20 20
20 13 0 20 -7 20 -20z"/>
<path d="M5860 1970 c-10 -6 -15 -25 -15 -55 0 -30 5 -49 15 -55 34 -22 55 0
55 55 0 41 -13 65 -35 65 -3 0 -12 -5 -20 -10z m38 -52 c-2 -30 -8 -43 -18
-43 -10 0 -16 13 -18 43 -3 37 -1 42 18 42 19 0 21 -5 18 -42z"/>
<path d="M6356 1971 c-4 -5 3 -7 14 -4 23 6 26 13 6 13 -8 0 -17 -4 -20 -9z"/>
<path d="M3832 1913 c-1 -28 -8 -45 -19 -52 -15 -9 -12 -10 15 -9 17 1 32 6
32 10 0 4 -4 8 -9 8 -6 0 -12 19 -14 43 l-4 42 -1 -42z"/>
<path d="M5675 1930 c-3 -5 1 -10 9 -10 11 0 16 -9 16 -26 0 -25 -2 -26 -32
-20 -32 6 -33 6 -11 -9 30 -21 63 -5 63 30 0 26 -34 53 -45 35z"/>
<path d="M6370 1926 c0 -2 7 -7 16 -10 8 -3 12 -2 9 4 -6 10 -25 14 -25 6z"/>
<path d="M4910 1900 c0 -5 5 -10 10 -10 6 0 10 5 10 10 0 6 -4 10 -10 10 -5 0
-10 -4 -10 -10z"/>
<path d="M3150 1860 c0 -5 5 -10 10 -10 6 0 10 5 10 10 0 6 -4 10 -10 10 -5 0
-10 -4 -10 -10z"/>
<path d="M4860 1860 c0 -5 5 -10 10 -10 6 0 10 5 10 10 0 6 -4 10 -10 10 -5 0
-10 -4 -10 -10z"/>
<path d="M544 1846 c11 -9 27 -16 36 -16 9 0 22 -6 30 -12 8 -7 6 -3 -4 9 -10
13 -22 20 -27 17 -5 -3 -19 0 -31 6 -22 11 -22 10 -4 -4z"/>
<path d="M630 1809 c3 -3 17 -13 32 -22 23 -14 26 -15 22 -2 -4 8 -10 15 -14
15 -5 0 -17 3 -27 7 -10 3 -16 4 -13 2z"/>
<path d="M1307 1771 c-7 -8 -34 -25 -62 -37 -27 -13 -42 -24 -33 -24 10 0 40
14 66 30 27 17 54 30 60 30 6 0 13 4 16 8 8 14 -35 8 -47 -7z"/>
<path d="M1195 1690 c-3 -5 -15 -10 -25 -10 -10 0 -22 -5 -26 -11 -4 -8 1 -9
17 -4 23 7 60 35 47 35 -4 0 -10 -4 -13 -10z"/>
<path d="M916 1679 c3 -5 24 -9 46 -9 51 0 47 5 -10 13 -24 3 -40 1 -36 -4z"/>
<path d="M1055 1680 l-40 -7 47 -2 c26 0 50 4 53 9 7 11 1 11 -60 0z"/>
<path d="M838 1673 c6 -2 18 -2 25 0 6 3 1 5 -13 5 -14 0 -19 -2 -12 -5z"/>
<path d="M868 1583 c6 -2 18 -2 25 0 6 3 1 5 -13 5 -14 0 -19 -2 -12 -5z"/>
<path d="M2973 1403 c-7 -2 -13 -15 -13 -28 0 -18 8 -26 35 -35 19 -6 35 -18
35 -26 0 -17 -41 -19 -58 -2 -9 9 -12 8 -12 -5 0 -33 81 -34 94 -1 8 22 -1 34
-41 50 -40 17 -34 38 8 29 16 -4 29 -2 29 3 0 18 -47 28 -77 15z"/>
<path d="M3190 1347 l0 -64 35 -1 c29 -1 38 3 47 23 17 38 -4 79 -37 71 -20
-5 -25 -3 -25 14 0 11 -4 20 -10 20 -6 0 -10 -28 -10 -63z m60 -17 c0 -20 -5
-30 -15 -30 -18 0 -30 24 -21 45 10 28 36 17 36 -15z"/>
<path d="M3570 1400 c0 -5 5 -10 10 -10 6 0 10 5 10 10 0 6 -4 10 -10 10 -5 0
-10 -4 -10 -10z"/>
<path d="M3620 1347 l0 -64 35 -1 c29 -1 38 3 47 23 17 38 -4 79 -37 71 -20
-5 -25 -3 -25 14 0 11 -4 20 -10 20 -6 0 -10 -28 -10 -63z m60 -17 c0 -32 -26
-43 -36 -15 -9 21 3 45 21 45 10 0 15 -10 15 -30z"/>
<path d="M3890 1391 c0 -14 -6 -17 -25 -14 -33 7 -54 -34 -37 -72 9 -20 18
-24 47 -23 l35 1 0 64 c0 35 -4 63 -10 63 -5 0 -10 -8 -10 -19z m-5 -61 c0
-16 -6 -26 -17 -28 -14 -3 -18 3 -18 28 0 25 4 31 18 28 11 -2 17 -12 17 -28z"/>
<path d="M3993 1395 c-16 -30 -2 -109 20 -113 9 -2 17 1 17 7 0 6 -4 11 -10
11 -15 0 -12 57 3 63 8 4 9 8 1 14 -6 4 -13 15 -16 23 -4 12 -7 11 -15 -5z"/>
<path d="M4506 1368 c-8 -30 -8 -73 0 -65 6 6 15 87 9 87 -1 0 -5 -10 -9 -22z"/>
<path d="M3082 1333 c3 -48 3 -48 41 -49 l37 -1 0 48 c0 57 -17 66 -22 12 -2
-27 -8 -39 -20 -41 -15 -3 -18 4 -18 37 0 23 -5 41 -11 41 -6 0 -9 -19 -7 -47z"/>
<path d="M3307 1374 c-16 -16 -6 -44 18 -50 33 -8 32 -28 0 -21 -16 3 -24 0
-22 -7 6 -17 52 -19 67 -2 16 20 -2 46 -31 46 -11 0 -19 5 -19 11 0 7 10 9 26
5 19 -5 25 -3 22 6 -5 14 -50 23 -61 12z"/>
<path d="M3406 1364 c-9 -8 -16 -24 -16 -34 0 -42 55 -65 81 -34 12 15 10 16
-19 10 -31 -7 -32 -6 -32 24 0 30 1 31 32 24 29 -6 31 -5 19 10 -17 20 -45 21
-65 0z"/>
<path d="M3500 1329 c0 -27 5 -49 10 -49 6 0 10 16 10 35 0 22 6 38 15 41 23
9 18 22 -10 22 -23 0 -25 -4 -25 -49z"/>
<path d="M3570 1330 c0 -27 5 -50 10 -50 6 0 10 23 10 50 0 28 -4 50 -10 50
-5 0 -10 -22 -10 -50z"/>
<path d="M3736 1364 c-21 -20 -20 -48 0 -69 19 -18 55 -17 62 3 3 9 -3 11 -23
6 -21 -5 -27 -4 -23 7 3 8 14 14 26 14 29 0 35 10 22 34 -13 25 -42 27 -64 5z
m44 -14 c0 -5 -7 -10 -15 -10 -8 0 -15 5 -15 10 0 6 7 10 15 10 8 0 15 -4 15
-10z"/>
<path d="M4056 1364 c-31 -30 -9 -84 34 -84 24 0 50 26 50 50 0 24 -26 50 -50
50 -10 0 -26 -7 -34 -16z m54 -34 c0 -23 -4 -30 -20 -30 -16 0 -20 7 -20 30 0
23 4 30 20 30 16 0 20 -7 20 -30z"/>
<path d="M4860 1360 c0 -5 5 -10 11 -10 5 0 7 5 4 10 -3 6 -8 10 -11 10 -2 0
-4 -4 -4 -10z"/>
<path d="M4915 1361 c-3 -5 -2 -12 3 -15 5 -3 9 1 9 9 0 17 -3 19 -12 6z"/>
<path d="M5125 1350 c-4 -12 -5 -24 -2 -27 3 -2 8 5 12 17 4 12 5 24 2 27 -3
2 -8 -5 -12 -17z"/>
<path d="M4608 1335 c-6 -30 -3 -43 8 -33 3 4 4 19 2 35 l-3 28 -7 -30z"/>
<path d="M5305 1330 c0 -15 3 -26 8 -23 4 2 7 13 7 23 0 10 -3 21 -7 23 -5 3
-8 -8 -8 -23z"/>
<path d="M4650 1325 c0 -8 2 -15 4 -15 2 0 6 7 10 15 3 8 1 15 -4 15 -6 0 -10
-7 -10 -15z"/>
<path d="M4866 1315 c4 -8 8 -15 10 -15 2 0 4 7 4 15 0 8 -4 15 -10 15 -5 0
-7 -7 -4 -15z"/>
<path d="M4811 1294 c0 -11 3 -14 6 -6 3 7 2 16 -1 19 -3 4 -6 -2 -5 -13z"/>
<path d="M0 1262 c0 -12 49 -37 56 -29 11 10 -17 37 -37 37 -11 0 -19 -4 -19
-8z"/>
<path d="M682 1254 c-16 -11 -22 -25 -22 -54 0 -29 6 -43 22 -54 29 -20 72
-20 92 0 25 24 9 35 -23 16 -24 -14 -32 -14 -45 -3 -20 17 -21 65 -1 81 12 10
21 10 45 0 36 -15 47 -9 25 14 -21 20 -64 21 -93 0z"/>
<path d="M93 1214 c-15 -24 -15 -29 -2 -53 16 -29 61 -40 85 -20 17 14 19 70
2 87 -22 22 -66 14 -85 -14z m70 -13 c10 -39 -33 -71 -47 -35 -10 25 3 54 24
54 9 0 20 -8 23 -19z"/>
<path d="M220 1190 c0 -54 14 -69 48 -55 15 7 15 8 1 12 -18 4 -29 32 -29 71
0 12 -4 22 -10 22 -5 0 -10 -23 -10 -50z"/>
<path d="M288 1198 c-5 -51 -1 -68 18 -68 10 0 14 15 14 55 0 40 -4 55 -14 55
-9 0 -15 -15 -18 -42z"/>
<path d="M350 1183 c0 -40 4 -53 15 -53 11 0 15 11 15 40 0 27 5 43 15 46 25
10 17 21 -15 21 -30 0 -30 -1 -30 -54z"/>
<path d="M436 1224 c-33 -33 -7 -94 40 -94 20 0 44 17 44 32 0 13 -28 9 -32
-4 -7 -21 -38 0 -38 27 0 30 24 43 45 25 20 -17 32 -5 15 15 -16 20 -54 19
-74 -1z"/>
<path d="M552 1228 c-17 -17 -15 -73 2 -87 18 -15 68 -11 73 6 3 8 -6 11 -23
10 -15 -1 -29 4 -31 11 -3 8 7 12 31 12 25 0 36 5 36 14 0 37 -61 61 -88 34z
m58 -18 c0 -5 -9 -10 -20 -10 -11 0 -20 5 -20 10 0 6 9 10 20 10 11 0 20 -4
20 -10z"/>
<path d="M828 1229 c-26 -15 -24 -75 3 -89 30 -17 62 -8 78 21 13 24 13 29 -2
53 -18 27 -49 33 -79 15z m57 -28 c8 -26 -5 -53 -24 -49 -29 6 -27 68 3 68 8
0 17 -8 21 -19z"/>
<path d="M940 1185 c0 -42 3 -55 15 -55 10 0 15 10 15 34 0 33 20 62 33 49 4
-3 7 -24 7 -45 0 -27 4 -38 15 -38 11 0 15 12 15 50 0 56 -17 73 -51 51 -12
-7 -19 -7 -19 -1 0 5 -7 10 -15 10 -12 0 -15 -13 -15 -55z"/>
<path d="M0 1201 c0 -5 9 -11 20 -14 26 -7 26 -27 0 -34 -26 -7 -26 -23 -1
-23 20 0 51 24 51 40 0 5 -7 16 -16 24 -17 17 -54 22 -54 7z"/>
<path d="M558 1003 c7 -3 16 -2 19 1 4 3 -2 6 -13 5 -11 0 -14 -3 -6 -6z"/>
<path d="M883 960 c0 -25 2 -35 4 -22 2 12 2 32 0 45 -2 12 -4 2 -4 -23z"/>
<path d="M908 993 c7 -3 16 -2 19 1 4 3 -2 6 -13 5 -11 0 -14 -3 -6 -6z"/>
<path d="M302 950 c0 -19 2 -27 5 -17 2 9 2 25 0 35 -3 9 -5 1 -5 -18z"/>
<path d="M463 953 c9 -2 25 -2 35 0 9 3 1 5 -18 5 -19 0 -27 -2 -17 -5z"/>
<path d="M1421 944 c0 -11 3 -14 6 -6 3 7 2 16 -1 19 -3 4 -6 -2 -5 -13z"/>
<path d="M332 930 c0 -14 2 -19 5 -12 2 6 2 18 0 25 -3 6 -5 1 -5 -13z"/>
<path d="M4770 936 c0 -2 7 -7 16 -10 8 -3 12 -2 9 4 -6 10 -25 14 -25 6z"/>
<path d="M637 919 c7 -7 15 -10 18 -7 3 3 -2 9 -12 12 -14 6 -15 5 -6 -5z"/>
<path d="M4432 910 c0 -14 2 -19 5 -12 2 6 2 18 0 25 -3 6 -5 1 -5 -13z"/>
<path d="M5291 914 c0 -11 3 -14 6 -6 3 7 2 16 -1 19 -3 4 -6 -2 -5 -13z"/>
<path d="M5421 904 c0 -11 3 -14 6 -6 3 7 2 16 -1 19 -3 4 -6 -2 -5 -13z"/>
<path d="M1000 682 c0 -13 -7 -18 -22 -18 -20 1 -23 -4 -23 -34 0 -31 3 -35
28 -36 26 -1 27 1 27 52 0 30 -2 54 -5 54 -3 0 -5 -8 -5 -18z m-6 -37 c7 -20
-4 -47 -18 -42 -17 6 -20 57 -3 57 8 0 17 -7 21 -15z"/>
<path d="M1298 693 c-6 -28 -3 -103 4 -103 4 0 8 15 9 33 0 17 2 42 3 55 2 20
-12 33 -16 15z"/>
<path d="M2212 683 c-4 -10 -5 -36 -1 -58 7 -43 12 -38 9 8 -1 15 2 27 7 27 5
0 9 9 9 20 0 25 -12 26 -24 3z"/>
<path d="M3623 645 c0 -33 2 -45 4 -27 2 18 2 45 0 60 -2 15 -4 0 -4 -33z"/>
<path d="M3783 645 c0 -45 1 -52 6 -26 8 45 31 54 31 12 0 -16 5 -33 10 -36
12 -8 13 45 1 64 -5 8 -16 11 -24 8 -11 -4 -17 1 -20 16 -2 12 -4 -5 -4 -38z"/>
<path d="M4151 649 c-1 -55 0 -56 27 -55 24 1 27 5 27 36 0 28 -4 35 -20 35
-11 0 -23 9 -27 20 -3 12 -6 -4 -7 -36z m44 -19 c0 -13 -6 -25 -12 -27 -16 -6
-27 21 -19 43 9 23 31 11 31 -16z"/>
<path d="M9 657 c-1 -20 -2 -41 -3 -47 -1 -5 3 -10 8 -10 10 0 13 77 3 87 -4
3 -8 -10 -8 -30z"/>
<path d="M2951 687 c-2 -20 22 -97 30 -97 5 0 12 14 16 30 8 43 20 45 27 5 4
-19 11 -35 15 -35 10 0 36 88 28 96 -3 3 -9 -10 -12 -30 -9 -46 -21 -46 -29
-1 -9 47 -23 44 -32 -7 -6 -38 -8 -40 -15 -20 -19 48 -28 67 -28 59z"/>
<path d="M3218 679 c-22 -12 -24 -62 -4 -79 18 -14 58 -10 64 8 3 11 0 11 -16
1 -17 -10 -23 -10 -36 0 -9 8 -16 21 -16 31 0 10 7 23 16 31 13 10 19 10 36 0
16 -10 19 -10 16 1 -6 17 -38 21 -60 7z"/>
<path d="M3702 683 c12 -3 18 -18 21 -51 l3 -47 2 47 c2 35 6 48 20 51 9 3 -1
5 -23 5 -22 0 -32 -2 -23 -5z"/>
<path d="M3970 640 c0 -27 5 -50 10 -50 6 0 10 9 10 20 0 27 24 25 43 -2 9
-13 16 -18 16 -11 1 6 -3 15 -9 18 -6 4 -5 13 2 24 18 30 3 51 -37 51 l-35 0
0 -50z m65 20 c0 -8 -10 -16 -22 -18 -18 -3 -23 2 -23 18 0 16 5 21 23 18 12
-2 22 -10 22 -18z"/>
<path d="M3459 676 c-7 -7 2 -86 10 -86 3 0 6 18 5 40 -1 40 -6 55 -15 46z"/>
<path d="M4309 676 c-3 -3 -3 -23 -1 -45 4 -40 4 -40 45 -38 47 2 65 30 28 42
-28 9 -27 29 0 22 15 -4 19 -3 12 4 -14 14 -45 8 -50 -8 -3 -7 7 -18 21 -24
32 -15 25 -28 -15 -27 -28 1 -30 4 -27 34 2 31 -3 49 -13 40z"/>
<path d="M50 655 c-24 -29 14 -85 41 -58 9 9 7 11 -8 7 -13 -4 -22 0 -26 10
-5 12 0 16 23 16 32 0 37 9 18 28 -16 16 -33 15 -48 -3z m40 -5 c0 -5 -7 -10
-15 -10 -8 0 -15 5 -15 10 0 6 7 10 15 10 8 0 15 -4 15 -10z"/>
<path d="M126 636 c2 -16 4 -32 4 -37 0 -23 20 -5 28 24 l9 32 7 -32 c4 -18
11 -33 16 -33 9 0 24 70 16 78 -3 3 -6 -4 -6 -16 0 -11 -4 -24 -10 -27 -5 -3
-10 3 -10 14 0 31 -19 35 -26 6 -6 -26 -18 -24 -27 5 -2 8 -3 2 -1 -14z"/>
<path d="M227 663 c-13 -12 -7 -23 18 -35 33 -15 32 -32 -1 -25 -16 3 -22 1
-16 -5 14 -14 46 -5 50 14 2 9 -5 19 -17 23 -12 3 -21 11 -21 16 0 6 9 7 21 4
15 -5 19 -4 15 4 -8 12 -39 15 -49 4z"/>
<path d="M337 663 c-13 -12 -7 -23 18 -35 28 -13 23 -32 -8 -24 -14 3 -17 2
-10 -5 15 -15 47 -7 51 13 2 9 -5 19 -17 23 -12 3 -21 11 -21 16 0 6 9 7 21 4
15 -5 19 -4 15 4 -8 12 -39 15 -49 4z"/>
<path d="M412 658 c-23 -23 -7 -68 25 -68 7 0 18 11 25 25 18 40 -20 73 -50
43z m38 -28 c0 -32 -23 -42 -34 -15 -8 21 3 45 20 45 9 0 14 -11 14 -30z"/>
<path d="M483 635 c2 -36 5 -40 30 -41 25 -1 27 1 26 40 l-2 41 -6 -35 c-4
-22 -12 -35 -21 -35 -9 0 -18 13 -22 35 l-6 35 1 -40z"/>
<path d="M561 626 c2 -34 3 -36 6 -11 3 17 9 35 14 41 5 7 3 11 -6 11 -11 0
-15 -11 -14 -41z"/>
<path d="M610 650 c-18 -34 24 -83 44 -51 4 5 -3 7 -14 4 -17 -5 -20 0 -20 27
0 27 3 31 21 25 15 -5 19 -4 15 4 -11 17 -34 13 -46 -9z"/>
<path d="M680 650 c-18 -34 24 -83 44 -51 3 5 -2 8 -11 7 -9 0 -18 5 -20 12
-3 7 5 12 21 12 28 0 33 9 14 28 -18 18 -36 15 -48 -8z m45 0 c3 -5 -3 -10
-14 -10 -12 0 -21 5 -21 10 0 6 6 10 14 10 8 0 18 -4 21 -10z"/>
<path d="M794 659 c-5 -9 -2 -10 10 -6 10 4 23 4 29 0 7 -4 2 -9 -13 -13 -38
-9 -34 -45 6 -47 30 -1 30 0 25 35 -5 28 -12 38 -28 40 -11 2 -25 -2 -29 -9z
m40 -44 c-6 -16 -34 -21 -34 -7 0 13 11 22 26 22 8 0 11 -6 8 -15z"/>
<path d="M871 626 l2 -41 6 35 c4 22 12 35 21 35 9 0 18 -13 22 -35 l6 -35 -1
40 c-2 36 -5 40 -29 41 -26 1 -28 -1 -27 -40z"/>
<path d="M1070 655 c-25 -30 15 -85 42 -56 11 11 9 12 -8 7 -15 -4 -24 -2 -28
9 -9 26 4 46 26 39 14 -4 18 -2 14 5 -10 15 -31 14 -46 -4z"/>
<path d="M1134 645 c-7 -27 10 -55 32 -55 23 0 40 46 24 65 -20 24 -49 18 -56
-10z m46 -15 c0 -32 -23 -42 -34 -15 -8 21 3 45 20 45 9 0 14 -11 14 -30z"/>
<path d="M1211 626 c1 -42 3 -41 13 7 9 38 34 35 39 -5 4 -33 4 -33 3 2 -1 31
-4 35 -28 36 -26 1 -28 -1 -27 -40z"/>
<path d="M1334 656 c-16 -43 20 -86 49 -57 9 9 5 11 -12 9 -13 -2 -26 3 -28
10 -3 7 5 12 22 12 20 0 26 4 23 18 -4 22 -46 29 -54 8z m41 -6 c3 -5 -3 -10
-15 -10 -12 0 -18 5 -15 10 3 6 10 10 15 10 5 0 12 -4 15 -10z"/>
<path d="M1411 628 c2 -35 3 -37 6 -13 3 17 9 36 15 43 8 9 6 12 -6 12 -12 0
-16 -9 -15 -42z"/>
<path d="M1460 655 c-24 -29 14 -85 41 -58 9 9 7 11 -8 7 -13 -4 -22 0 -26 10
-5 12 0 16 24 16 27 0 29 2 19 20 -13 24 -33 26 -50 5z m40 -5 c0 -5 -7 -10
-15 -10 -8 0 -15 5 -15 10 0 6 7 10 15 10 8 0 15 -4 15 -10z"/>
<path d="M1531 626 c1 -42 3 -41 13 7 9 38 34 35 39 -5 4 -33 4 -33 3 2 -1 31
-4 35 -28 36 -26 1 -28 -1 -27 -40z"/>
<path d="M1617 663 c-4 -3 -7 -19 -7 -35 0 -31 24 -48 42 -30 7 7 4 10 -8 9
-14 -2 -19 5 -19 23 0 18 5 25 17 24 10 -1 15 2 12 7 -6 11 -28 12 -37 2z"/>
<path d="M1684 656 c-16 -43 20 -86 49 -57 9 9 5 11 -12 9 -13 -2 -26 3 -28
10 -3 7 5 12 22 12 20 0 26 4 23 18 -4 22 -46 29 -54 8z m41 -6 c3 -5 -3 -10
-15 -10 -12 0 -18 5 -15 10 3 6 10 10 15 10 5 0 12 -4 15 -10z"/>
<path d="M1800 651 c0 -10 9 -21 20 -24 11 -3 20 -11 20 -17 0 -8 -9 -10 -27
-5 -21 5 -25 4 -17 -5 7 -7 20 -10 30 -8 27 5 30 35 5 43 -27 8 -27 29 -1 22
11 -3 18 -1 14 4 -10 17 -44 10 -44 -10z"/>
<path d="M1870 650 c-8 -14 -8 -26 0 -40 11 -21 44 -27 55 -10 4 7 -2 9 -19 4
-20 -5 -26 -2 -26 10 0 11 9 16 26 16 20 0 25 4 20 16 -3 9 -6 18 -6 20 0 14
-41 1 -50 -16z m45 0 c3 -5 -3 -10 -14 -10 -12 0 -21 5 -21 10 0 6 6 10 14 10
8 0 18 -4 21 -10z"/>
<path d="M1942 630 c0 -22 3 -40 9 -40 5 0 9 15 9 34 0 19 6 37 13 39 6 3 2 6
-9 6 -19 1 -22 -5 -22 -39z"/>
<path d="M1993 630 c0 -25 2 -35 4 -22 2 12 2 32 0 45 -2 12 -4 2 -4 -23z"/>
<path d="M2024 656 c-10 -27 5 -66 26 -66 10 0 21 4 24 8 3 5 -4 8 -16 8 -12
-1 -23 5 -25 12 -3 7 5 12 22 12 20 0 26 4 23 18 -4 22 -46 29 -54 8z m46 -6
c0 -5 -9 -10 -21 -10 -11 0 -17 5 -14 10 3 6 13 10 21 10 8 0 14 -4 14 -10z"/>
<path d="M2107 663 c-13 -13 -7 -31 13 -36 11 -3 20 -11 20 -17 0 -8 -8 -10
-21 -7 -16 4 -19 3 -11 -5 14 -14 42 -3 42 16 0 8 -9 18 -20 21 -26 8 -26 29
0 22 11 -3 18 -1 14 4 -6 11 -28 12 -37 2z"/>
<path d="M2250 650 c-8 -14 -8 -26 0 -40 21 -40 67 -11 56 35 -8 31 -41 34
-56 5z m45 -10 c8 -24 -1 -40 -21 -40 -9 0 -14 11 -14 30 0 35 25 42 35 10z"/>
<path d="M2327 663 c-11 -10 -8 -73 3 -73 6 0 10 15 10 34 0 19 6 37 13 39 8
4 6 6 -4 6 -9 1 -19 -2 -22 -6z"/>
<path d="M3090 655 c-24 -29 14 -85 41 -58 9 9 7 11 -8 7 -13 -4 -22 0 -26 10
-5 12 0 16 24 16 27 0 29 2 19 20 -13 24 -33 26 -50 5z m40 -5 c0 -5 -7 -10
-15 -10 -8 0 -15 5 -15 10 0 6 7 10 15 10 8 0 15 -4 15 -10z"/>
<path d="M3304 656 c-3 -8 -4 -25 -2 -38 2 -17 9 -23 28 -23 22 0 25 4 25 35
0 29 -4 36 -23 38 -13 2 -24 -3 -28 -12z m41 -26 c0 -13 -6 -25 -12 -27 -16
-6 -27 21 -19 43 9 23 31 11 31 -16z"/>
<path d="M3381 626 l2 -41 6 35 c4 22 12 35 21 35 9 0 18 -13 22 -35 l6 -35
-1 40 c-2 36 -5 40 -29 41 -26 1 -28 -1 -27 -40z"/>
<path d="M3501 626 c2 -34 3 -36 6 -11 3 17 9 35 14 41 5 7 3 11 -6 11 -11 0
-15 -11 -14 -41z"/>
<path d="M3544 656 c-3 -8 -4 -25 -2 -38 2 -17 9 -23 28 -23 22 0 25 4 25 35
0 29 -4 36 -23 38 -13 2 -24 -3 -28 -12z m41 -26 c0 -13 -6 -25 -12 -27 -16
-6 -27 21 -19 43 9 23 31 11 31 -16z"/>
<path d="M3860 655 c-24 -29 14 -85 41 -58 9 9 7 11 -8 7 -13 -4 -22 0 -26 10
-5 12 0 16 24 16 27 0 29 2 19 20 -13 24 -33 26 -50 5z m40 -5 c0 -5 -9 -10
-21 -10 -11 0 -17 5 -14 10 3 6 13 10 21 10 8 0 14 -4 14 -10z"/>
<path d="M4074 656 c-3 -8 -4 -25 -2 -38 2 -17 9 -23 28 -23 22 0 25 4 25 35
0 29 -4 36 -23 38 -13 2 -24 -3 -28 -12z m44 -23 c-3 -30 -25 -42 -34 -19 -9
22 2 46 21 46 12 0 15 -8 13 -27z"/>
<path d="M4230 651 c-13 -26 4 -64 27 -59 25 5 40 35 27 56 -16 25 -41 26 -54
3z m45 -21 c0 -16 -6 -26 -17 -28 -14 -3 -18 3 -18 28 0 25 4 31 18 28 11 -2
17 -12 17 -28z"/>
<path d="M750 486 c0 -8 -10 -16 -22 -18 -19 -2 -23 -9 -23 -38 0 -31 3 -35
28 -36 26 -1 27 1 27 52 0 30 -2 54 -5 54 -3 0 -5 -6 -5 -14z m-6 -41 c7 -20
-4 -47 -18 -42 -17 6 -20 57 -3 57 8 0 17 -7 21 -15z"/>
<path d="M1598 495 c-9 -14 -6 -105 3 -105 4 0 9 14 11 32 4 45 26 47 31 4 l4
-36 -1 37 c-1 27 -6 38 -16 38 -8 0 -17 9 -20 20 -3 11 -9 15 -12 10z"/>
<path d="M821 438 c1 -29 4 -43 6 -30 6 28 39 30 48 2 3 -11 11 -20 16 -20 6
0 6 6 0 18 -6 11 -6 24 1 35 13 25 -7 47 -43 47 -28 0 -29 -1 -28 -52z m59 22
c0 -15 -7 -20 -25 -20 -18 0 -25 5 -25 20 0 15 7 20 25 20 18 0 25 -5 25 -20z"/>
<path d="M1218 474 c-10 -9 8 -77 20 -80 7 -1 8 0 2 3 -14 7 -13 60 2 65 8 3
6 6 -4 10 -9 4 -18 5 -20 2z"/>
<path d="M40 451 c-13 -26 4 -64 27 -59 25 5 40 35 27 56 -16 25 -41 26 -54 3z
m44 -6 c8 -21 -3 -45 -20 -45 -9 0 -14 11 -14 30 0 32 23 42 34 15z"/>
<path d="M110 453 c0 -43 12 -63 36 -61 21 2 24 7 23 43 l-2 40 -6 -34 c-8
-48 -31 -53 -31 -7 0 20 -4 36 -10 36 -5 0 -10 -8 -10 -17z"/>
<path d="M192 430 c0 -22 3 -40 9 -40 5 0 9 15 9 34 0 19 6 37 13 39 6 3 2 6
-9 6 -19 1 -22 -5 -22 -39z"/>
<path d="M247 463 c-4 -3 -7 -19 -7 -35 0 -31 24 -48 42 -30 7 7 4 10 -8 9
-14 -2 -19 5 -19 23 0 18 5 25 17 24 10 -1 15 2 12 7 -6 11 -28 12 -37 2z"/>
<path d="M314 456 c-16 -43 20 -86 49 -57 9 9 5 11 -12 9 -13 -2 -26 3 -28 10
-3 7 5 12 22 12 20 0 26 4 23 18 -4 22 -46 29 -54 8z m41 -6 c3 -5 -3 -10 -15
-10 -12 0 -18 5 -15 10 3 6 10 10 15 10 5 0 12 -4 15 -10z"/>
<path d="M391 426 c2 -34 3 -36 6 -11 3 17 9 35 14 41 5 7 3 11 -6 11 -11 0
-15 -11 -14 -41z"/>
<path d="M437 463 c-13 -12 -7 -23 18 -35 28 -13 23 -32 -8 -24 -14 3 -17 2
-10 -5 15 -15 47 -7 51 13 2 9 -5 19 -17 23 -12 3 -21 11 -21 16 0 6 9 7 21 4
15 -5 19 -4 15 4 -8 12 -39 15 -49 4z"/>
<path d="M550 462 c0 -6 9 -8 20 -5 11 3 20 1 20 -5 0 -6 -10 -12 -22 -14 -15
-2 -23 -10 -23 -23 0 -15 7 -20 31 -22 30 -1 30 0 25 35 -5 28 -12 38 -29 40
-12 2 -22 -1 -22 -6z m40 -41 c0 -14 -18 -23 -30 -16 -6 4 -8 11 -5 16 8 12
35 12 35 0z"/>
<path d="M621 426 l1 -41 10 38 c12 46 35 49 41 5 4 -33 4 -33 3 2 -1 31 -4
35 -28 36 -26 1 -28 -1 -27 -40z"/>
<path d="M920 450 c-8 -14 -8 -26 0 -40 12 -22 27 -25 50 -10 11 8 8 9 -12 4
-22 -5 -28 -3 -28 10 0 11 9 16 26 16 20 0 25 4 20 16 -3 9 -6 18 -6 20 0 14
-41 1 -50 -16z m45 0 c3 -5 -3 -10 -14 -10 -12 0 -21 5 -21 10 0 6 6 10 14 10
8 0 18 -4 21 -10z"/>
<path d="M1000 455 c-25 -30 15 -85 42 -56 11 11 9 12 -8 7 -15 -4 -24 -2 -28
9 -9 26 4 46 26 39 14 -4 18 -2 14 5 -10 15 -31 14 -46 -4z"/>
<path d="M1064 430 c1 -49 16 -54 16 -6 0 19 6 37 13 39 6 3 3 6 -9 6 -18 1
-21 -4 -20 -39z"/>
<path d="M1113 435 c2 -36 5 -40 30 -41 25 -1 27 1 26 40 l-2 41 -6 -35 c-4
-22 -12 -35 -21 -35 -9 0 -18 13 -22 35 l-6 35 1 -40z"/>
<path d="M1193 430 c0 -25 2 -35 4 -22 2 12 2 32 0 45 -2 12 -4 2 -4 -23z"/>
<path d="M1264 456 c-16 -43 20 -86 49 -57 9 9 5 11 -12 9 -13 -2 -26 3 -28
10 -3 7 5 12 22 12 20 0 26 4 23 18 -4 22 -46 29 -54 8z m41 -6 c3 -5 -3 -10
-15 -10 -12 0 -18 5 -15 10 3 6 10 10 15 10 5 0 12 -4 15 -10z"/>
<path d="M1341 426 c2 -34 3 -36 6 -11 3 17 9 35 14 41 5 7 3 11 -6 11 -11 0
-15 -11 -14 -41z"/>
<path d="M1387 463 c-13 -12 -7 -23 18 -35 28 -13 23 -32 -8 -24 -14 3 -17 2
-10 -5 15 -15 47 -7 51 13 2 9 -5 19 -17 23 -12 3 -21 11 -21 16 0 6 9 7 21 4
15 -5 19 -4 15 4 -8 12 -39 15 -49 4z"/>
<path d="M1492 430 c13 -48 24 -51 34 -7 l7 32 9 -34 c11 -40 25 -31 33 19 l5
35 -13 -35 -14 -34 -6 32 c-8 38 -27 43 -27 6 0 -14 -4 -23 -10 -19 -5 3 -10
15 -10 26 0 10 -4 19 -9 19 -5 0 -4 -17 1 -40z"/>
<path d="M1674 456 c-3 -8 -4 -25 -2 -38 2 -17 9 -23 28 -23 22 0 25 4 25 35
0 29 -4 36 -23 38 -13 2 -24 -3 -28 -12z m41 -26 c0 -27 -22 -39 -31 -16 -8
22 3 49 19 43 6 -2 12 -14 12 -27z"/>
<path d="M1797 463 c-13 -13 -7 -31 13 -36 11 -3 20 -11 20 -17 0 -7 -8 -10
-20 -7 -11 3 -18 1 -14 -4 3 -5 14 -9 25 -9 26 0 25 37 -1 45 -26 8 -26 29 0
22 11 -3 18 -1 14 4 -6 11 -28 12 -37 2z"/>
<path d="M1864 456 c-3 -8 -4 -25 -2 -38 2 -17 9 -23 28 -23 22 0 25 4 25 35
0 29 -4 36 -23 38 -13 2 -24 -3 -28 -12z m41 -26 c0 -27 -22 -39 -31 -16 -8
22 3 49 19 43 6 -2 12 -14 12 -27z"/>
<path d="M1944 430 c1 -30 5 -35 29 -38 26 -3 27 -1 27 37 0 23 -4 41 -10 41
-5 0 -10 -16 -10 -35 0 -46 -27 -48 -33 -2 -4 32 -4 32 -3 -3z"/>
<path d="M2015 435 c3 -48 15 -57 15 -12 0 19 6 38 13 40 6 3 2 6 -9 6 -19 1
-21 -4 -19 -34z"/>
<path d="M2064 456 c-16 -43 21 -85 49 -57 9 9 5 11 -13 9 -21 -3 -25 1 -25
22 0 20 4 25 23 23 13 -2 21 1 17 7 -9 15 -45 12 -51 -4z"/>
<path d="M2134 456 c-16 -41 20 -86 47 -59 6 6 1 9 -12 9 -12 -1 -24 5 -26 12
-3 7 5 12 22 12 20 0 26 4 23 18 -4 22 -46 29 -54 8z m46 -6 c0 -5 -9 -10 -21
-10 -11 0 -17 5 -14 10 3 6 13 10 21 10 8 0 14 -4 14 -10z"/>
<path d="M4 414 c-1 -13 2 -21 7 -18 11 6 12 31 2 37 -5 3 -9 -6 -9 -19z"/>
<path d="M3463 400 c0 -25 2 -35 4 -22 2 12 2 32 0 45 -2 12 -4 2 -4 -23z"/>
<path d="M3226 413 c-6 -14 -5 -15 5 -6 7 7 10 15 7 18 -3 3 -9 -2 -12 -12z"/>
<path d="M3001 404 c0 -11 3 -14 6 -6 3 7 2 16 -1 19 -3 4 -6 -2 -5 -13z"/>
<path d="M3392 380 c0 -14 2 -19 5 -12 2 6 2 18 0 25 -3 6 -5 1 -5 -13z"/>
<path d="M3432 380 c0 -14 2 -19 5 -12 2 6 2 18 0 25 -3 6 -5 1 -5 -13z"/>
<path d="M3621 384 c0 -11 3 -14 6 -6 3 7 2 16 -1 19 -3 4 -6 -2 -5 -13z"/>
<path d="M3082 370 c0 -14 2 -19 5 -12 2 6 2 18 0 25 -3 6 -5 1 -5 -13z"/>
<path d="M3512 370 c0 -14 2 -19 5 -12 2 6 2 18 0 25 -3 6 -5 1 -5 -13z"/>
<path d="M3288 373 c7 -3 16 -2 19 1 4 3 -2 6 -13 5 -11 0 -14 -3 -6 -6z"/>
<path d="M3553 373 c9 -2 23 -2 30 0 6 3 -1 5 -18 5 -16 0 -22 -2 -12 -5z"/>
<path d="M3047 339 c7 -7 15 -10 18 -7 3 3 -2 9 -12 12 -14 6 -15 5 -6 -5z"/>
<path d="M2973 333 c9 -2 23 -2 30 0 6 3 -1 5 -18 5 -16 0 -22 -2 -12 -5z"/>
<path d="M9 257 c-1 -20 -2 -41 -3 -47 -1 -5 3 -10 8 -10 10 0 13 77 3 87 -4
3 -8 -10 -8 -30z"/>
<path d="M760 280 c-10 -6 -11 -10 -2 -10 7 0 12 -14 12 -34 0 -19 -6 -37 -12
-39 -7 -3 3 -6 22 -6 26 0 31 2 19 9 -10 6 -15 22 -13 49 1 43 -2 47 -26 31z"/>
<path d="M832 278 c-26 -26 -8 -88 25 -88 23 0 38 46 25 75 -13 27 -31 32 -50
13z m36 -35 c-3 -41 -23 -55 -33 -24 -9 28 3 61 21 61 11 0 14 -9 12 -37z"/>
<path d="M199 276 c-7 -7 2 -86 10 -86 3 0 6 18 5 40 -1 40 -6 55 -15 46z"/>
<path d="M50 255 c-24 -29 14 -85 41 -58 9 9 7 11 -8 7 -13 -4 -22 0 -26 10
-5 12 0 16 24 16 27 0 29 2 19 20 -13 24 -33 26 -50 5z m40 -5 c0 -5 -7 -10
-15 -10 -8 0 -15 5 -15 10 0 6 7 10 15 10 8 0 15 -4 15 -10z"/>
<path d="M129 253 c9 -18 9 -28 0 -45 -11 -22 -10 -22 7 -6 16 16 18 16 31 0
13 -15 13 -14 3 6 -8 16 -8 28 1 45 11 20 11 21 -4 8 -14 -11 -20 -11 -34 0
-15 13 -15 12 -4 -8z"/>
<path d="M273 235 c2 -36 5 -40 30 -41 25 -1 27 1 26 40 l-2 41 -6 -35 c-4
-22 -12 -35 -21 -35 -9 0 -18 13 -22 35 l-6 35 1 -40z"/>
<path d="M351 211 c1 -32 4 -48 7 -36 4 11 16 20 27 20 16 0 20 7 20 35 0 31
-3 35 -27 36 -27 1 -28 0 -27 -55z m44 19 c0 -13 -6 -25 -12 -27 -16 -6 -27
21 -19 43 9 23 31 11 31 -16z"/>
<path d="M510 255 c-26 -31 13 -82 44 -56 19 16 21 42 4 59 -16 16 -33 15 -48
-3z m40 -25 c0 -32 -23 -42 -34 -15 -8 21 3 45 20 45 9 0 14 -11 14 -30z"/>
<path d="M583 235 c2 -36 5 -40 30 -41 25 -1 27 1 26 40 l-2 41 -6 -35 c-4
-22 -12 -35 -21 -35 -9 0 -18 13 -22 35 l-6 35 1 -40z"/>
<path d="M661 226 c2 -34 3 -36 6 -11 3 17 9 35 14 41 5 7 3 11 -6 11 -11 0
-15 -11 -14 -41z"/>
<path d="M946 228 c14 -39 13 -44 -3 -55 -16 -12 -16 -13 0 -13 9 0 17 1 17 3
0 1 9 26 20 55 22 56 19 73 -3 20 l-14 -33 -7 33 c-4 17 -12 32 -16 32 -5 0
-2 -19 6 -42z"/>
<path d="M1014 256 c-16 -41 20 -86 47 -59 6 6 1 9 -12 9 -12 -1 -24 5 -26 12
-3 7 5 12 22 12 20 0 26 4 23 18 -4 22 -46 29 -54 8z m41 -6 c3 -5 -3 -10 -15
-10 -12 0 -18 5 -15 10 3 6 10 10 15 10 5 0 12 -4 15 -10z"/>
<path d="M1094 259 c-4 -8 0 -9 15 -4 11 3 21 2 21 -3 0 -5 -9 -12 -20 -15
-12 -3 -20 -14 -20 -26 0 -17 6 -20 33 -19 30 1 33 4 29 27 -8 45 -41 68 -58
40z m36 -44 c0 -8 -7 -15 -15 -15 -8 0 -15 7 -15 15 0 8 7 15 15 15 8 0 15 -7
15 -15z"/>
<path d="M1171 226 c2 -34 3 -36 6 -11 3 17 9 35 14 41 5 7 3 11 -6 11 -11 0
-15 -11 -14 -41z"/>
<path d="M1254 259 c-5 -9 -2 -10 10 -6 10 4 23 4 29 0 7 -4 2 -9 -13 -13 -38
-9 -34 -45 6 -47 30 -1 30 0 25 35 -5 28 -12 38 -28 40 -11 2 -25 -2 -29 -9z
m40 -44 c-7 -17 -20 -20 -28 -6 -7 10 3 21 20 21 8 0 11 -6 8 -15z"/>
<path d="M1331 226 l2 -41 6 35 c4 22 12 35 21 35 9 0 18 -13 22 -35 l6 -35
-1 40 c-2 36 -5 40 -29 41 -26 1 -28 -1 -27 -40z"/>
<path d="M1412 228 l1 -43 4 38 c6 50 33 52 33 2 0 -19 5 -35 10 -35 11 0 13
39 4 64 -3 9 -17 16 -30 16 -22 0 -24 -4 -22 -42z"/>
<path d="M1482 230 c-2 -23 2 -40 8 -40 5 0 10 18 10 40 0 22 -4 40 -8 40 -4
0 -9 -18 -10 -40z"/>
<path d="M1513 256 c4 -10 10 -29 13 -42 3 -13 10 -24 15 -24 5 0 9 2 9 4 0 2
7 20 15 40 8 20 11 36 6 36 -5 0 -12 -14 -16 -30 -7 -32 -25 -32 -25 0 0 10
-5 22 -12 26 -8 5 -9 2 -5 -10z"/>
<path d="M1592 258 c-25 -25 -6 -68 30 -68 10 0 18 4 18 9 0 5 -9 7 -20 4 -14
-4 -20 0 -20 11 0 11 9 16 26 16 20 0 25 4 20 16 -3 9 -6 18 -6 20 0 9 -37 3
-48 -8z m43 -8 c3 -5 -3 -10 -14 -10 -12 0 -21 5 -21 10 0 6 6 10 14 10 8 0
18 -4 21 -10z"/>
<path d="M1664 230 c0 -22 4 -40 8 -40 4 0 8 15 8 34 0 19 6 37 13 39 6 3 3 6
-9 6 -18 1 -21 -5 -20 -39z"/>
<path d="M1714 258 c-4 -7 2 -18 14 -26 28 -19 28 -36 1 -29 -15 4 -19 3 -12
-4 15 -15 48 -7 48 11 0 8 -10 19 -22 25 -28 12 -30 29 -3 22 11 -3 20 -1 20
4 0 13 -38 11 -46 -3z"/>
<path d="M1784 259 c-5 -9 -2 -10 10 -6 10 4 23 4 29 0 7 -4 2 -9 -13 -13 -38
-9 -34 -45 6 -47 30 -1 30 0 25 35 -5 28 -12 38 -28 40 -11 2 -25 -2 -29 -9z
m40 -44 c-6 -16 -34 -21 -34 -7 0 13 11 22 26 22 8 0 11 -6 8 -15z"/>
<path d="M1861 225 l2 -40 6 34 c8 45 25 49 41 10 10 -24 11 -36 2 -50 -8 -13
-9 -19 -2 -19 14 0 53 87 47 103 -3 7 -8 0 -12 -15 -9 -35 -21 -36 -29 -3 -5
19 -12 24 -31 23 -22 -2 -25 -7 -24 -43z"/>
<path d="M2012 230 c0 -22 4 -40 9 -40 5 0 9 18 9 40 0 22 -4 40 -9 40 -6 0
-9 -18 -9 -40z"/>
<path d="M2044 230 c1 -49 16 -54 16 -5 0 50 27 48 33 -2 l4 -38 1 43 c2 40 1
42 -27 42 -26 0 -28 -2 -27 -40z"/>
<path d="M858 95 c-9 -15 -7 -84 3 -91 5 -3 9 9 9 25 0 21 5 31 15 31 10 0 15
-10 15 -32 0 -24 3 -29 12 -20 15 15 -5 62 -26 62 -8 0 -16 8 -18 18 -2 9 -6
13 -10 7z"/>
<path d="M382 77 c-14 -16 -5 -29 31 -45 15 -7 25 -17 22 -22 -3 -6 -1 -10 4
-10 24 0 9 32 -19 43 -37 14 -41 41 -5 35 13 -3 22 -1 19 3 -8 13 -40 11 -52
-4z"/>
<path d="M1105 79 c-4 -6 -4 -13 -1 -16 3 -4 6 -1 6 5 0 7 7 12 15 12 19 0 20
-39 1 -46 -8 -3 -17 -13 -20 -22 -4 -9 8 -2 24 16 25 27 29 36 19 48 -14 17
-35 18 -44 3z"/>
<path d="M1180 75 c0 -25 4 -30 23 -27 13 3 17 -4 17 -25 1 -24 2 -26 11 -10
12 20 -4 47 -27 47 -23 0 -16 18 9 23 19 4 18 4 -5 6 -19 1 -28 -4 -28 -14z"/>
<path d="M1307 83 c-14 -13 -6 -25 8 -13 12 10 19 10 27 2 9 -9 5 -20 -17 -44
l-30 -33 34 32 c22 20 32 37 28 47 -6 16 -38 22 -50 9z"/>
<path d="M1393 83 c32 -5 31 -1 12 -47 -9 -21 -11 -36 -5 -36 5 0 10 8 10 18
0 10 7 27 15 38 22 29 18 34 -22 33 -31 -2 -33 -3 -10 -6z"/>
<path d="M1537 84 c-14 -14 -7 -26 8 -14 12 10 19 10 27 2 9 -9 5 -19 -17 -42
-16 -16 -25 -30 -21 -30 14 0 57 54 54 69 -3 17 -39 27 -51 15z"/>
<path d="M1617 84 c-9 -10 -9 -84 1 -84 4 0 7 17 7 37 0 27 4 38 15 38 11 0
15 -11 15 -38 0 -20 4 -37 8 -37 5 0 7 19 5 43 -2 33 -7 43 -23 45 -12 2 -24
0 -28 -4z"/>
<path d="M1700 80 c-10 -6 -11 -10 -2 -10 7 0 12 -14 12 -35 0 -19 5 -35 10
-35 7 0 10 19 9 45 -3 48 -5 50 -29 35z"/>
<path d="M1782 83 c26 -4 26 -4 12 -40 -22 -51 -11 -50 14 2 l22 45 -38 -1
c-29 -2 -31 -3 -10 -6z"/>
<path d="M1853 55 c0 -22 2 -30 4 -17 2 12 2 30 0 40 -3 9 -5 -1 -4 -23z"/>
<path d="M1893 55 c0 -22 2 -30 4 -17 2 12 2 30 0 40 -3 9 -5 -1 -4 -23z"/>
<path d="M188 73 c-2 -5 -1 -24 2 -43 l6 -35 5 38 c5 34 -4 59 -13 40z"/>
<path d="M626 73 c-9 -10 -7 -73 3 -73 5 0 11 16 13 36 4 34 -3 50 -16 37z"/>
<path d="M43 35 c0 -22 2 -30 4 -17 2 12 2 30 0 40 -3 9 -5 -1 -4 -23z"/>
<path d="M80 35 c0 -19 5 -35 10 -35 6 0 10 16 10 35 0 19 -4 35 -10 35 -5 0
-10 -16 -10 -35z"/>
<path d="M117 63 c-13 -12 -7 -23 18 -35 13 -6 22 -15 19 -19 -3 -5 0 -9 5 -9
19 0 12 28 -9 35 -11 3 -20 11 -20 16 0 6 9 7 21 4 15 -5 19 -4 15 4 -8 12
-39 15 -49 4z"/>
<path d="M222 35 c0 -19 4 -35 9 -35 5 0 9 16 9 35 0 19 -4 35 -9 35 -5 0 -9
-16 -9 -35z"/>
<path d="M252 35 c-2 -19 2 -35 8 -35 5 0 10 16 10 35 0 19 -4 35 -8 35 -4 0
-9 -16 -10 -35z"/>
<path d="M287 63 c6 -4 13 -22 16 -38 4 -27 5 -27 3 4 0 21 -7 36 -16 38 -10
3 -11 2 -3 -4z"/>
<path d="M468 45 c-9 -19 -9 -28 0 -37 9 -9 12 -8 12 5 0 11 8 17 25 17 27 0
32 9 13 28 -19 19 -37 14 -50 -13z m47 5 c3 -6 -3 -10 -14 -10 -12 0 -21 5
-21 10 0 6 6 10 14 10 8 0 18 -4 21 -10z"/>
<path d="M542 36 c0 -20 4 -36 9 -36 5 0 9 13 9 30 0 42 28 40 32 -2 3 -28 5
-30 13 -14 11 25 -6 50 -38 54 -23 3 -25 0 -25 -32z"/>
<path d="M667 64 c-11 -11 -8 -64 3 -64 5 0 7 7 4 15 -5 11 1 15 21 15 20 0
26 4 23 18 -3 17 -38 29 -51 16z m38 -14 c3 -5 -3 -10 -15 -10 -12 0 -18 5
-15 10 3 6 10 10 15 10 5 0 12 -4 15 -10z"/>
<path d="M741 31 c1 -35 2 -35 8 -7 9 43 31 45 32 4 l1 -33 9 33 c13 45 36 42
30 -5 -1 -6 3 -15 9 -18 8 -5 10 4 8 26 -3 33 -4 34 -50 35 l-48 1 1 -36z"/>
<path d="M937 64 c-11 -11 -8 -64 3 -64 5 0 7 7 4 15 -5 11 1 15 21 15 20 0
26 4 23 18 -3 17 -38 29 -51 16z m38 -14 c3 -5 -3 -10 -15 -10 -12 0 -18 5
-15 10 3 6 10 10 15 10 5 0 12 -4 15 -10z"/>
<path d="M1011 31 c1 -28 3 -30 6 -11 3 14 9 30 14 36 5 7 3 11 -6 11 -11 0
-15 -11 -14 -36z"/>
<path d="M1 33 c-1 -12 4 -25 9 -28 12 -7 12 2 0 30 -8 19 -9 19 -9 -2z"/>
<path d="M1258 33 c7 -3 16 -2 19 1 4 3 -2 6 -13 5 -11 0 -14 -3 -6 -6z"/>
<path d="M370 10 c0 -5 5 -10 11 -10 5 0 7 5 4 10 -3 6 -8 10 -11 10 -2 0 -4
-4 -4 -10z"/>
<path d="M1170 10 c0 -5 5 -10 11 -10 5 0 7 5 4 10 -3 6 -8 10 -11 10 -2 0 -4
-4 -4 -10z"/>
</g>
</svg>
