<?xml version="1.0" encoding="utf-8"?>

<!DOCTYPE svg PUBLIC "-//W3C//DTD SVG 1.1//EN" "http://www.w3.org/Graphics/SVG/1.1/DTD/svg11.dtd">
<svg version="1.1" id="Layer_1" xmlns="http://www.w3.org/2000/svg" xmlns:xlink="http://www.w3.org/1999/xlink" x="0px" y="0px"
	 viewBox="0 0 1688.834 1631.129" enable-background="new 0 0 1688.834 1631.129" xml:space="preserve">
<g>
	<path fill="#C69C6D" enable-background="new    " d="M1253.119,324.387c-1.88-7.318-7.79-11.953-15.922-12.832
		c-0.707-0.076-1.394-0.113-2.064-0.113c-7.068,0-12.098,4.128-14.973,9.769c-3.004-5.888-8.131-9.707-15.608-9.707
		c-0.495,0-1,0.017-1.516,0.051c-7.436,0.49-13.823,4.937-15.836,13.604c-3.62,15.592,13.515,31.53,32.959,47.036
		C1240.839,356.795,1256.972,339.388,1253.119,324.387z"/>
	<path fill="#39B54A" enable-background="new    " d="M1186.426,28.51c-1.88-7.318-7.79-11.953-15.922-12.832
		c-0.707-0.076-1.394-0.113-2.064-0.113c-7.068,0-12.098,4.128-14.973,9.769c-3.004-5.888-8.131-9.707-15.608-9.707
		c-0.495,0-1,0.017-1.516,0.051c-7.436,0.49-13.823,4.937-15.836,13.604c-3.62,15.592,13.515,31.53,32.959,47.036
		C1174.146,60.918,1190.279,43.511,1186.426,28.51z"/>
	<path fill="#00FF00" enable-background="new    " d="M1189.895,1029.123c-1.88-7.318-7.79-11.953-15.922-12.832
		c-0.707-0.076-1.394-0.113-2.065-0.113c-7.068,0-12.098,4.128-14.973,9.769c-3.004-5.888-8.131-9.707-15.608-9.707
		c-0.495,0-1,0.017-1.516,0.051c-7.436,0.49-13.823,4.937-15.836,13.604c-3.62,15.592,13.515,31.53,32.959,47.036
		C1177.615,1061.531,1193.748,1044.124,1189.895,1029.123z"/>
	<path fill="#BDCCD4" enable-background="new    " d="M1245.738,1097.729c-1.88-7.318-7.79-11.953-15.922-12.832
		c-0.707-0.076-1.394-0.113-2.064-0.113c-7.068,0-12.098,4.128-14.973,9.769c-3.004-5.888-8.131-9.707-15.608-9.707
		c-0.495,0-1,0.017-1.516,0.051c-7.436,0.49-13.823,4.937-15.836,13.604c-3.62,15.592,13.515,31.53,32.959,47.036
		C1233.457,1130.137,1249.59,1112.731,1245.738,1097.729z"/>
	<path fill="#C69C6D" enable-background="new    " d="M1585.204,904.712c-1.88-7.318-7.79-11.953-15.922-12.832
		c-0.707-0.076-1.394-0.113-2.064-0.113c-7.068,0-12.098,4.128-14.973,9.769c-3.004-5.888-8.131-9.707-15.608-9.707
		c-0.495,0-1,0.017-1.516,0.051c-7.436,0.49-13.823,4.937-15.836,13.604c-3.62,15.592,13.515,31.53,32.959,47.036
		C1572.924,937.12,1589.057,919.713,1585.204,904.712z"/>
	<path fill="#29ABE2" enable-background="new    " d="M345.013,777.033c-1.879-7.318-7.79-11.953-15.922-12.832
		c-0.707-0.076-1.394-0.113-2.064-0.113c-7.068,0-12.098,4.128-14.973,9.769c-3.004-5.888-8.131-9.707-15.608-9.707
		c-0.495,0-1,0.017-1.516,0.051c-7.436,0.49-13.823,4.937-15.836,13.604c-3.62,15.592,13.515,31.53,32.959,47.036
		C332.732,809.441,348.865,792.034,345.013,777.033z"/>
	<path fill="#3FA9F5" enable-background="new    " d="M1067.914,937.833c-1.88-7.318-7.79-11.953-15.922-12.832
		c-0.707-0.076-1.394-0.113-2.064-0.113c-7.068,0-12.098,4.128-14.973,9.769c-3.004-5.888-8.131-9.707-15.608-9.707
		c-0.495,0-1,0.017-1.516,0.051c-7.436,0.49-13.823,4.937-15.836,13.604c-3.62,15.592,13.515,31.53,32.959,47.036
		C1055.634,970.241,1071.767,952.835,1067.914,937.833z"/>
	<path fill="#C1272D" enable-background="new    " d="M406.574,1358.246c-1.879-7.318-7.79-11.953-15.922-12.832
		c-0.707-0.076-1.394-0.113-2.064-0.113c-7.068,0-12.098,4.128-14.973,9.769c-3.004-5.888-8.131-9.707-15.608-9.707
		c-0.495,0-1,0.017-1.516,0.051c-7.436,0.49-13.823,4.937-15.836,13.604c-3.62,15.592,13.515,31.53,32.959,47.036
		C394.294,1390.654,410.427,1373.247,406.574,1358.246z"/>
	<path fill="#7AC943" enable-background="new    " d="M940.296,1239.689c-1.879-7.318-7.79-11.953-15.922-12.832
		c-0.707-0.076-1.394-0.113-2.065-0.113c-7.068,0-12.098,4.128-14.973,9.769c-3.004-5.888-8.131-9.707-15.608-9.707
		c-0.495,0-1,0.017-1.516,0.051c-7.436,0.49-13.823,4.937-15.836,13.604c-3.62,15.592,13.515,31.53,32.959,47.036
		C928.016,1272.097,944.149,1254.691,940.296,1239.689z"/>
	<path fill="#C69C6D" enable-background="new    " d="M1172.302,1262.728c-1.879-7.318-7.79-11.953-15.922-12.832
		c-0.707-0.076-1.394-0.113-2.064-0.113c-7.068,0-12.098,4.128-14.973,9.769c-3.004-5.888-8.131-9.707-15.608-9.707
		c-0.495,0-1,0.017-1.516,0.051c-7.436,0.49-13.823,4.937-15.836,13.604c-3.62,15.592,13.515,31.53,32.959,47.036
		C1160.021,1295.136,1176.154,1277.729,1172.302,1262.728z"/>
	<path fill="#C69C6D" enable-background="new    " d="M577.586,1032.997c-1.879-7.318-7.79-11.953-15.922-12.832
		c-0.707-0.076-1.394-0.113-2.065-0.113c-7.068,0-12.098,4.128-14.973,9.769c-3.004-5.888-8.131-9.707-15.608-9.707
		c-0.495,0-1,0.017-1.516,0.051c-7.436,0.49-13.823,4.937-15.836,13.604c-3.62,15.592,13.515,31.53,32.959,47.036
		C565.305,1065.405,581.438,1047.998,577.586,1032.997z"/>
	<path fill="#FF931E" enable-background="new    " d="M651.907,1174.42c-1.879-7.318-7.79-11.953-15.922-12.832
		c-0.707-0.076-1.394-0.113-2.064-0.113c-7.068,0-12.098,4.128-14.973,9.769c-3.004-5.888-8.131-9.707-15.608-9.707
		c-0.495,0-1,0.017-1.516,0.051c-7.436,0.49-13.823,4.937-15.836,13.604c-3.62,15.592,13.515,31.53,32.959,47.036
		C639.626,1206.828,655.759,1189.422,651.907,1174.42z"/>
	<path fill="#D4145A" enable-background="new    " d="M1109.599,133.007c-1.88-7.318-7.79-11.953-15.922-12.832
		c-0.707-0.076-1.394-0.113-2.064-0.113c-7.068,0-12.098,4.128-14.973,9.769c-3.004-5.888-8.131-9.707-15.608-9.707
		c-0.495,0-1,0.017-1.516,0.051c-7.436,0.49-13.823,4.937-15.836,13.604c-3.62,15.592,13.515,31.53,32.959,47.036
		C1097.318,165.415,1113.451,148.009,1109.599,133.007z"/>
	<path fill="#3FA9F5" enable-background="new    " d="M205.618,553.025c-1.879-7.318-7.79-11.953-15.922-12.832
		c-0.707-0.076-1.394-0.113-2.064-0.113c-7.068,0-12.098,4.128-14.973,9.769c-3.004-5.888-8.131-9.707-15.608-9.707
		c-0.495,0-1,0.017-1.516,0.051c-7.436,0.49-13.823,4.937-15.836,13.604c-3.62,15.592,13.515,31.53,32.959,47.036
		C193.338,585.433,209.471,568.026,205.618,553.025z"/>
	<path fill="#F7931E" enable-background="new    " d="M174.844,937.854c-1.879-7.318-7.79-11.953-15.922-12.832
		c-0.707-0.076-1.394-0.113-2.064-0.113c-7.068,0-12.098,4.128-14.973,9.769c-3.004-5.888-8.131-9.707-15.608-9.707
		c-0.495,0-1,0.017-1.516,0.051c-7.436,0.49-13.823,4.937-15.836,13.604c-3.62,15.592,13.515,31.53,32.959,47.036
		C162.564,970.262,178.697,952.856,174.844,937.854z"/>
	<path fill="#93278F" enable-background="new    " d="M732.822,1500.66c-1.88-7.318-7.79-11.953-15.922-12.832
		c-0.707-0.076-1.394-0.113-2.064-0.113c-7.068,0-12.098,4.128-14.973,9.769c-3.004-5.888-8.131-9.707-15.608-9.707
		c-0.495,0-1,0.017-1.516,0.051c-7.436,0.49-13.823,4.937-15.836,13.604c-3.62,15.592,13.515,31.53,32.959,47.036
		C720.542,1533.068,736.675,1515.662,732.822,1500.66z"/>
	<path fill="#7AC943" enable-background="new    " d="M1249.991,60.153c-1.88-7.318-7.79-11.953-15.922-12.832
		c-0.707-0.076-1.394-0.113-2.064-0.113c-7.068,0-12.098,4.128-14.973,9.769c-3.004-5.888-8.131-9.707-15.608-9.707
		c-0.495,0-1,0.017-1.516,0.051c-7.436,0.49-13.823,4.937-15.836,13.604c-3.62,15.592,13.515,31.53,32.959,47.036
		C1237.711,92.561,1253.844,75.155,1249.991,60.153z"/>
	<path fill="#8C6239" enable-background="new    " d="M518.705,207.679c-1.879-7.318-7.79-11.953-15.922-12.832
		c-0.707-0.076-1.394-0.113-2.064-0.113c-7.068,0-12.098,4.128-14.973,9.769c-3.004-5.888-8.131-9.707-15.608-9.707
		c-0.495,0-1,0.017-1.516,0.051c-7.436,0.49-13.823,4.937-15.836,13.604c-3.62,15.592,13.515,31.53,32.959,47.036
		C506.424,240.087,522.558,222.681,518.705,207.679z"/>
	<path fill="#A67C52" enable-background="new    " d="M860.167,1201.516c-1.88-7.318-7.79-11.953-15.922-12.832
		c-0.707-0.076-1.394-0.113-2.064-0.113c-7.068,0-12.098,4.128-14.973,9.77c-3.004-5.888-8.131-9.707-15.608-9.707
		c-0.495,0-1,0.017-1.516,0.051c-7.436,0.49-13.823,4.937-15.836,13.604c-3.62,15.592,13.515,31.53,32.959,47.036
		C847.887,1233.924,864.02,1216.517,860.167,1201.516z"/>
	<path fill="#FCEE21" enable-background="new    " d="M1404.499,832.864c-1.88-7.318-7.79-11.953-15.922-12.832
		c-0.707-0.076-1.394-0.113-2.064-0.113c-7.068,0-12.098,4.128-14.973,9.769c-3.004-5.888-8.131-9.707-15.608-9.707
		c-0.495,0-1,0.017-1.516,0.051c-7.436,0.49-13.823,4.937-15.836,13.604c-3.62,15.592,13.515,31.53,32.959,47.036
		C1392.219,865.271,1408.352,847.865,1404.499,832.864z"/>
	<path fill="#22B573" enable-background="new    " d="M676.771,217.936c-1.879-7.318-7.79-11.953-15.922-12.832
		c-0.707-0.076-1.394-0.113-2.064-0.113c-7.068,0-12.098,4.128-14.973,9.769c-3.004-5.888-8.131-9.707-15.608-9.707
		c-0.495,0-1,0.017-1.516,0.051c-7.436,0.49-13.823,4.937-15.836,13.604c-3.62,15.592,13.515,31.53,32.959,47.036
		C664.491,250.344,680.624,232.938,676.771,217.936z"/>
	<path fill="#FF931E" enable-background="new    " d="M555.009,121.96c-1.879-7.318-7.79-11.953-15.922-12.832
		c-0.707-0.076-1.394-0.113-2.065-0.113c-7.068,0-12.098,4.128-14.973,9.769c-3.004-5.888-8.131-9.707-15.608-9.707
		c-0.495,0-1,0.017-1.516,0.051c-7.436,0.49-13.823,4.937-15.836,13.604c-3.62,15.592,13.515,31.53,32.959,47.036
		C542.729,154.368,558.862,136.962,555.009,121.96z"/>
	<path fill="#BDCCD4" enable-background="new    " d="M1493.236,534.687c-1.88-7.318-7.79-11.953-15.922-12.832
		c-0.707-0.076-1.394-0.113-2.064-0.113c-7.068,0-12.098,4.128-14.973,9.769c-3.004-5.888-8.131-9.707-15.608-9.707
		c-0.495,0-1,0.017-1.516,0.051c-7.436,0.49-13.823,4.937-15.836,13.604c-3.62,15.592,13.515,31.53,32.959,47.036
		C1480.956,567.095,1497.089,549.688,1493.236,534.687z"/>
	<path fill="#FF00FF" enable-background="new    " d="M240.989,636.435c-1.879-7.318-7.79-11.953-15.922-12.832
		c-0.707-0.076-1.394-0.113-2.064-0.113c-7.068,0-12.098,4.128-14.973,9.769c-3.004-5.888-8.131-9.707-15.608-9.707
		c-0.495,0-1,0.017-1.516,0.051c-7.436,0.49-13.823,4.937-15.836,13.604c-3.62,15.592,13.515,31.53,32.959,47.036
		C228.708,668.843,244.841,651.437,240.989,636.435z"/>
	<path fill="#00A99D" enable-background="new    " d="M475.534,1186.171c-1.879-7.318-7.79-11.953-15.922-12.832
		c-0.707-0.076-1.394-0.113-2.064-0.113c-7.068,0-12.098,4.128-14.973,9.769c-3.004-5.888-8.131-9.707-15.608-9.707
		c-0.495,0-1,0.017-1.516,0.051c-7.436,0.49-13.823,4.937-15.836,13.604c-3.62,15.592,13.515,31.53,32.959,47.036
		C463.254,1218.579,479.387,1201.172,475.534,1186.171z"/>
	<path fill="#0000FF" enable-background="new    " d="M134.05,575.737c-1.879-7.318-7.79-11.953-15.922-12.832
		c-0.707-0.076-1.394-0.113-2.064-0.113c-7.068,0-12.098,4.128-14.973,9.769c-3.004-5.888-8.131-9.707-15.608-9.707
		c-0.495,0-1,0.017-1.516,0.051c-7.436,0.49-13.823,4.937-15.836,13.604c-3.62,15.592,13.515,31.53,32.959,47.036
		C121.769,608.145,137.902,590.739,134.05,575.737z"/>
	<path fill="#D4145A" enable-background="new    " d="M326.63,935.612c-1.879-7.318-7.79-11.953-15.922-12.832
		c-0.707-0.076-1.394-0.113-2.064-0.113c-7.068,0-12.098,4.128-14.973,9.769c-3.004-5.888-8.131-9.707-15.608-9.707
		c-0.495,0-1,0.017-1.516,0.051c-7.436,0.49-13.823,4.937-15.836,13.604c-3.62,15.592,13.515,31.53,32.959,47.036
		C314.35,968.02,330.483,950.613,326.63,935.612z"/>
	<path fill="#FBB03B" enable-background="new    " d="M670.608,1360.183c-1.879-7.318-7.79-11.953-15.922-12.832
		c-0.707-0.076-1.394-0.113-2.065-0.113c-7.068,0-12.098,4.128-14.973,9.769c-3.004-5.888-8.131-9.707-15.608-9.707
		c-0.495,0-1,0.017-1.516,0.051c-7.436,0.49-13.823,4.937-15.836,13.604c-3.62,15.592,13.515,31.53,32.959,47.036
		C658.327,1392.591,674.46,1375.184,670.608,1360.183z"/>
	<path fill="#662D91" enable-background="new    " d="M676.017,291.333c-1.879-7.318-7.79-11.953-15.922-12.832
		c-0.707-0.076-1.394-0.113-2.064-0.113c-7.068,0-12.098,4.128-14.973,9.769c-3.004-5.888-8.131-9.707-15.608-9.707
		c-0.495,0-1,0.017-1.516,0.051c-7.436,0.49-13.823,4.937-15.836,13.604c-3.62,15.592,13.515,31.53,32.959,47.036
		C663.737,323.741,679.87,306.334,676.017,291.333z"/>
	<path fill="#009245" enable-background="new    " d="M421.37,761.67c-1.879-7.318-7.79-11.953-15.922-12.832
		c-0.707-0.076-1.394-0.113-2.064-0.113c-7.068,0-12.098,4.128-14.973,9.769c-3.004-5.888-8.131-9.707-15.608-9.707
		c-0.495,0-1,0.017-1.516,0.051c-7.436,0.49-13.823,4.937-15.836,13.604c-3.62,15.592,13.515,31.53,32.959,47.036
		C409.089,794.078,425.223,776.672,421.37,761.67z"/>
	<path fill="#FF00FF" enable-background="new    " d="M643.72,1538.297c-1.879-7.318-7.79-11.953-15.922-12.832
		c-0.707-0.076-1.394-0.113-2.064-0.113c-7.068,0-12.098,4.128-14.973,9.77c-3.004-5.888-8.131-9.707-15.608-9.707
		c-0.495,0-1,0.017-1.516,0.051c-7.436,0.49-13.823,4.937-15.836,13.604c-3.62,15.592,13.515,31.53,32.959,47.036
		C631.439,1570.705,647.572,1553.299,643.72,1538.297z"/>
	<path fill="#A67C52" enable-background="new    " d="M567.411,1175.627c-1.879-7.318-7.79-11.953-15.922-12.832
		c-0.707-0.076-1.394-0.113-2.065-0.113c-7.068,0-12.098,4.128-14.973,9.77c-3.004-5.888-8.131-9.707-15.608-9.707
		c-0.495,0-1,0.017-1.516,0.051c-7.436,0.49-13.823,4.937-15.836,13.604c-3.62,15.592,13.515,31.53,32.959,47.036
		C555.13,1208.035,571.263,1190.628,567.411,1175.627z"/>
	<path fill="#A67C52" enable-background="new    " d="M1279.004,1567.757c-1.88-7.318-7.79-11.953-15.922-12.832
		c-0.707-0.076-1.394-0.113-2.064-0.113c-7.068,0-12.098,4.128-14.973,9.77c-3.004-5.888-8.131-9.707-15.608-9.707
		c-0.495,0-1,0.017-1.516,0.051c-7.436,0.49-13.823,4.937-15.836,13.604c-3.62,15.592,13.515,31.53,32.959,47.036
		C1266.724,1600.165,1282.857,1582.758,1279.004,1567.757z"/>
	<path fill="#0071BC" enable-background="new    " d="M1192.802,1463.5c-1.879-7.318-7.79-11.953-15.922-12.832
		c-0.707-0.076-1.394-0.113-2.065-0.113c-7.068,0-12.098,4.128-14.973,9.769c-3.004-5.888-8.131-9.707-15.608-9.707
		c-0.495,0-1,0.017-1.516,0.051c-7.436,0.49-13.823,4.937-15.836,13.604c-3.62,15.592,13.515,31.53,32.959,47.036
		C1180.522,1495.908,1196.655,1478.502,1192.802,1463.5z"/>
	<path fill="#603813" enable-background="new    " d="M398.704,1452.276c-1.879-7.318-7.79-11.953-15.922-12.832
		c-0.707-0.076-1.394-0.113-2.064-0.113c-7.068,0-12.098,4.128-14.973,9.769c-3.004-5.888-8.131-9.707-15.608-9.707
		c-0.495,0-1,0.017-1.516,0.051c-7.436,0.49-13.823,4.937-15.836,13.604c-3.62,15.592,13.515,31.53,32.959,47.036
		C386.424,1484.684,402.557,1467.278,398.704,1452.276z"/>
	<path fill="#39B54A" enable-background="new    " d="M570.71,1401.601c-1.879-7.318-7.79-11.953-15.922-12.832
		c-0.707-0.076-1.394-0.113-2.064-0.113c-7.068,0-12.098,4.128-14.973,9.769c-3.004-5.888-8.131-9.707-15.608-9.707
		c-0.495,0-1,0.017-1.516,0.051c-7.436,0.49-13.823,4.937-15.836,13.604c-3.62,15.592,13.515,31.53,32.959,47.036
		C558.429,1434.009,574.562,1416.603,570.71,1401.601z"/>
	<path fill="#ED1E79" enable-background="new    " d="M827.513,1478.446c-1.879-7.318-7.79-11.953-15.922-12.832
		c-0.707-0.076-1.394-0.113-2.064-0.113c-7.068,0-12.098,4.128-14.973,9.769c-3.004-5.888-8.131-9.707-15.608-9.707
		c-0.495,0-1,0.017-1.516,0.051c-7.436,0.49-13.823,4.937-15.836,13.604c-3.62,15.592,13.515,31.53,32.959,47.036
		C815.233,1510.854,831.366,1493.447,827.513,1478.446z"/>
	<path fill="#9E005D" enable-background="new    " d="M925.797,1462.331c-1.88-7.318-7.79-11.953-15.922-12.832
		c-0.707-0.076-1.394-0.113-2.064-0.113c-7.068,0-12.098,4.128-14.973,9.769c-3.004-5.888-8.131-9.707-15.608-9.707
		c-0.495,0-1,0.017-1.516,0.051c-7.436,0.49-13.823,4.937-15.836,13.604c-3.62,15.592,13.515,31.53,32.959,47.036
		C913.516,1494.739,929.649,1477.332,925.797,1462.331z"/>
	<path fill="#29ABE2" enable-background="new    " d="M751.901,207.959c-1.88-7.318-7.79-11.953-15.922-12.832
		c-0.707-0.076-1.394-0.113-2.064-0.113c-7.068,0-12.098,4.128-14.973,9.769c-3.004-5.888-8.131-9.707-15.608-9.707
		c-0.495,0-1,0.017-1.516,0.051c-7.436,0.49-13.823,4.937-15.836,13.604c-3.62,15.592,13.515,31.53,32.959,47.036
		C739.62,240.367,755.753,222.961,751.901,207.959z"/>
	<path fill="#0000FF" enable-background="new    " d="M537.521,1561.767c-1.879-7.318-7.79-11.953-15.922-12.832
		c-0.707-0.076-1.394-0.113-2.065-0.113c-7.068,0-12.098,4.128-14.973,9.769c-3.004-5.888-8.131-9.707-15.608-9.707
		c-0.495,0-1,0.017-1.516,0.051c-7.436,0.49-13.823,4.937-15.836,13.604c-3.62,15.592,13.515,31.53,32.959,47.036
		C525.24,1594.175,541.374,1576.769,537.521,1561.767z"/>
	<path fill="#A67C52" enable-background="new    " d="M1633.674,557.545c-1.88-7.318-7.79-11.953-15.922-12.832
		c-0.707-0.076-1.394-0.113-2.064-0.113c-7.068,0-12.098,4.128-14.973,9.769c-3.004-5.888-8.131-9.707-15.608-9.707
		c-0.495,0-1,0.017-1.516,0.051c-7.436,0.49-13.823,4.937-15.836,13.604c-3.62,15.592,13.515,31.53,32.959,47.036
		C1621.394,589.953,1637.527,572.546,1633.674,557.545z"/>
	<path fill="#1B1464" enable-background="new    " d="M519.781,306.512c-1.879-7.318-7.79-11.953-15.922-12.832
		c-0.707-0.076-1.394-0.113-2.064-0.113c-7.068,0-12.098,4.128-14.973,9.769c-3.004-5.888-8.131-9.707-15.608-9.707
		c-0.495,0-1,0.017-1.516,0.051c-7.436,0.49-13.823,4.937-15.836,13.604c-3.62,15.592,13.515,31.53,32.959,47.036
		C507.501,338.92,523.634,321.514,519.781,306.512z"/>
	<path fill="#F7931E" enable-background="new    " d="M421.7,904.464c-1.879-7.318-7.79-11.953-15.922-12.832
		c-0.707-0.076-1.394-0.113-2.064-0.113c-7.068,0-12.098,4.128-14.973,9.769c-3.004-5.888-8.131-9.707-15.608-9.707
		c-0.495,0-1,0.017-1.516,0.051c-7.436,0.49-13.823,4.937-15.836,13.604c-3.62,15.592,13.515,31.53,32.959,47.036
		C409.42,936.872,425.553,919.466,421.7,904.464z"/>
	<path fill="#FF7BAC" enable-background="new    " d="M1413.581,1404.871c-1.879-7.318-7.79-11.953-15.922-12.832
		c-0.707-0.076-1.394-0.113-2.065-0.113c-7.068,0-12.098,4.128-14.973,9.77c-3.004-5.888-8.131-9.707-15.608-9.707
		c-0.495,0-1,0.017-1.516,0.051c-7.436,0.49-13.823,4.937-15.836,13.604c-3.62,15.592,13.515,31.53,32.959,47.036
		C1401.301,1437.279,1417.434,1419.873,1413.581,1404.871z"/>
	<path fill="#7AC943" enable-background="new    " d="M621.262,1101.716c-1.879-7.318-7.79-11.953-15.922-12.832
		c-0.707-0.076-1.394-0.113-2.064-0.113c-7.068,0-12.098,4.128-14.973,9.77c-3.004-5.888-8.131-9.707-15.608-9.707
		c-0.495,0-1,0.017-1.516,0.051c-7.436,0.49-13.823,4.937-15.836,13.604c-3.62,15.592,13.515,31.53,32.959,47.036
		C608.982,1134.124,625.115,1116.717,621.262,1101.716z"/>
	<path fill="#8C6239" enable-background="new    " d="M1098.896,1129.585c-1.88-7.318-7.79-11.953-15.922-12.832
		c-0.707-0.076-1.394-0.113-2.064-0.113c-7.068,0-12.098,4.128-14.973,9.769c-3.004-5.888-8.131-9.707-15.608-9.707
		c-0.495,0-1,0.017-1.516,0.051c-7.436,0.49-13.823,4.937-15.836,13.604c-3.62,15.592,13.515,31.53,32.959,47.036
		C1086.615,1161.993,1102.748,1144.587,1098.896,1129.585z"/>
	<path fill="#662D91" enable-background="new    " d="M1559.627,590.595c-1.88-7.318-7.79-11.953-15.922-12.832
		c-0.707-0.076-1.394-0.113-2.064-0.113c-7.068,0-12.098,4.128-14.973,9.769c-3.004-5.888-8.131-9.707-15.608-9.707
		c-0.495,0-1,0.017-1.516,0.051c-7.436,0.49-13.823,4.937-15.836,13.604c-3.62,15.592,13.515,31.53,32.959,47.036
		C1547.346,623.003,1563.479,605.597,1559.627,590.595z"/>
	<path fill="#009245" enable-background="new    " d="M1341.36,904.311c-1.88-7.318-7.79-11.953-15.922-12.832
		c-0.707-0.076-1.394-0.113-2.064-0.113c-7.068,0-12.098,4.128-14.973,9.769c-3.004-5.888-8.131-9.707-15.608-9.707
		c-0.495,0-1,0.017-1.516,0.051c-7.436,0.49-13.823,4.937-15.836,13.604c-3.62,15.592,13.515,31.53,32.959,47.036
		C1329.08,936.719,1345.213,919.313,1341.36,904.311z"/>
	<path fill="#FBB03B" enable-background="new    " d="M1416.932,1489.675c-1.879-7.318-7.79-11.953-15.922-12.832
		c-0.707-0.076-1.394-0.114-2.065-0.114c-7.068,0-12.098,4.128-14.973,9.77c-3.004-5.888-8.131-9.707-15.608-9.707
		c-0.495,0-1,0.017-1.516,0.051c-7.436,0.49-13.823,4.937-15.836,13.604c-3.62,15.592,13.515,31.53,32.959,47.036
		C1404.651,1522.083,1420.785,1504.676,1416.932,1489.675z"/>
	<path fill="#998675" enable-background="new    " d="M649.684,80.555c-1.88-7.318-7.79-11.953-15.922-12.832
		c-0.707-0.076-1.394-0.113-2.064-0.113c-7.068,0-12.098,4.128-14.973,9.769c-3.004-5.888-8.131-9.707-15.608-9.707
		c-0.495,0-1,0.017-1.516,0.051c-7.436,0.49-13.823,4.937-15.836,13.604c-3.62,15.592,13.515,31.53,32.959,47.036
		C637.403,112.963,653.536,95.557,649.684,80.555z"/>
	<path fill="#754C24" enable-background="new    " d="M947.268,1080.565c-1.88-7.318-7.79-11.953-15.922-12.832
		c-0.707-0.076-1.394-0.113-2.064-0.113c-7.068,0-12.098,4.128-14.973,9.769c-3.004-5.888-8.131-9.707-15.608-9.707
		c-0.495,0-1,0.017-1.516,0.051c-7.436,0.49-13.823,4.937-15.836,13.604c-3.62,15.592,13.515,31.53,32.959,47.036
		C934.987,1112.973,951.12,1095.567,947.268,1080.565z"/>
	<path fill="#93278F" enable-background="new    " d="M1276.825,1490.09c-1.88-7.318-7.79-11.953-15.922-12.832
		c-0.707-0.076-1.394-0.113-2.064-0.113c-7.068,0-12.098,4.128-14.973,9.77c-3.004-5.888-8.131-9.707-15.608-9.707
		c-0.495,0-1,0.017-1.516,0.051c-7.436,0.49-13.823,4.937-15.836,13.604c-3.62,15.592,13.515,31.53,32.959,47.036
		C1264.544,1522.498,1280.677,1505.091,1276.825,1490.09z"/>
	<path fill="#93278F" enable-background="new    " d="M1134.372,971.814c-1.88-7.318-7.79-11.953-15.922-12.832
		c-0.707-0.076-1.394-0.113-2.064-0.113c-7.068,0-12.098,4.128-14.973,9.769c-3.004-5.888-8.131-9.707-15.608-9.707
		c-0.495,0-1,0.017-1.516,0.051c-7.436,0.49-13.823,4.937-15.836,13.604c-3.62,15.592,13.515,31.53,32.959,47.036
		C1122.091,1004.222,1138.225,986.815,1134.372,971.814z"/>
	<path fill="#29ABE2" enable-background="new    " d="M1251.891,1237.684c-1.88-7.318-7.79-11.953-15.922-12.832
		c-0.707-0.076-1.394-0.113-2.064-0.113c-7.068,0-12.098,4.128-14.973,9.769c-3.004-5.888-8.131-9.707-15.608-9.707
		c-0.495,0-1,0.017-1.516,0.051c-7.436,0.49-13.823,4.937-15.836,13.604c-3.62,15.592,13.515,31.53,32.959,47.036
		C1239.61,1270.092,1255.743,1252.686,1251.891,1237.684z"/>
	<path fill="#FF1D25" enable-background="new    " d="M1124.474,275.459c-1.88-7.318-7.79-11.953-15.922-12.832
		c-0.707-0.076-1.394-0.113-2.064-0.113c-7.068,0-12.098,4.128-14.973,9.769c-3.004-5.888-8.131-9.707-15.608-9.707
		c-0.495,0-1,0.017-1.516,0.051c-7.436,0.49-13.823,4.937-15.836,13.604c-3.62,15.592,13.515,31.53,32.959,47.036
		C1112.194,307.867,1128.327,290.461,1124.474,275.459z"/>
	<path fill="#FCEE21" enable-background="new    " d="M962.47,312.298c-1.879-7.318-7.79-11.953-15.922-12.832
		c-0.707-0.076-1.394-0.113-2.064-0.113c-7.068,0-12.098,4.128-14.973,9.769c-3.004-5.888-8.131-9.707-15.608-9.707
		c-0.495,0-1,0.017-1.516,0.051c-7.436,0.49-13.823,4.937-15.836,13.604c-3.62,15.592,13.515,31.53,32.959,47.036
		C950.19,344.706,966.323,327.299,962.47,312.298z"/>
	<path fill="#754C24" enable-background="new    " d="M496.025,1474.549c-1.879-7.318-7.79-11.953-15.922-12.832
		c-0.707-0.076-1.394-0.113-2.064-0.113c-7.068,0-12.098,4.128-14.973,9.77c-3.004-5.888-8.131-9.707-15.608-9.707
		c-0.495,0-1,0.017-1.516,0.051c-7.436,0.49-13.823,4.937-15.836,13.604c-3.62,15.592,13.515,31.53,32.959,47.036
		C483.745,1506.957,499.878,1489.55,496.025,1474.549z"/>
	<path fill="#FF1D25" enable-background="new    " d="M1237.871,1324.879c-1.88-7.318-7.79-11.953-15.922-12.832
		c-0.707-0.076-1.394-0.113-2.064-0.113c-7.068,0-12.098,4.128-14.973,9.769c-3.004-5.888-8.131-9.707-15.608-9.707
		c-0.495,0-1,0.017-1.516,0.051c-7.436,0.49-13.823,4.937-15.836,13.604c-3.62,15.592,13.515,31.53,32.959,47.036
		C1225.591,1357.287,1241.724,1339.881,1237.871,1324.879z"/>
	<path fill="#29ABE2" enable-background="new    " d="M1386.076,627.216c-1.879-7.318-7.79-11.953-15.922-12.832
		c-0.707-0.076-1.394-0.113-2.065-0.113c-7.068,0-12.098,4.128-14.973,9.769c-3.004-5.888-8.131-9.707-15.608-9.707
		c-0.495,0-1,0.017-1.516,0.051c-7.436,0.49-13.823,4.937-15.836,13.604c-3.62,15.592,13.515,31.53,32.959,47.036
		C1373.796,659.624,1389.929,642.217,1386.076,627.216z"/>
	<path fill="#7AC943" enable-background="new    " d="M304.639,705.969c-1.879-7.318-7.79-11.953-15.922-12.832
		c-0.707-0.076-1.394-0.113-2.064-0.113c-7.068,0-12.098,4.128-14.973,9.769c-3.004-5.888-8.131-9.707-15.608-9.707
		c-0.495,0-1,0.017-1.516,0.051c-7.436,0.49-13.823,4.937-15.836,13.604c-3.62,15.592,13.515,31.53,32.959,47.036
		C292.358,738.377,308.491,720.971,304.639,705.969z"/>
	<path fill="#D9E021" enable-background="new    " d="M579.943,1486.597c-1.879-7.318-7.79-11.953-15.922-12.832
		c-0.707-0.076-1.394-0.113-2.064-0.113c-7.068,0-12.098,4.128-14.973,9.769c-3.004-5.888-8.131-9.707-15.608-9.707
		c-0.495,0-1,0.017-1.516,0.051c-7.436,0.49-13.823,4.937-15.836,13.604c-3.62,15.592,13.515,31.53,32.959,47.036
		C567.662,1519.005,583.795,1501.598,579.943,1486.597z"/>
	<path fill="#ED1E79" enable-background="new    " d="M1388.661,1319.696c-1.88-7.318-7.79-11.953-15.922-12.832
		c-0.707-0.076-1.394-0.113-2.064-0.113c-7.068,0-12.098,4.128-14.973,9.769c-3.004-5.888-8.131-9.707-15.608-9.707
		c-0.495,0-1,0.017-1.516,0.051c-7.436,0.49-13.823,4.937-15.836,13.604c-3.62,15.592,13.515,31.53,32.959,47.036
		C1376.38,1352.104,1392.514,1334.697,1388.661,1319.696z"/>
	<path fill="#00FFFF" enable-background="new    " d="M970.066,392.027c-1.88-7.318-7.79-11.953-15.922-12.832
		c-0.707-0.076-1.394-0.113-2.065-0.113c-7.068,0-12.098,4.128-14.973,9.769c-3.004-5.888-8.131-9.707-15.608-9.707
		c-0.495,0-1,0.017-1.516,0.051c-7.436,0.49-13.823,4.937-15.836,13.604c-3.62,15.592,13.515,31.53,32.959,47.036
		C957.785,424.435,973.919,407.029,970.066,392.027z"/>
	<path fill="#C1272D" enable-background="new    " d="M1187.99,531.157c-1.879-7.318-7.79-11.953-15.922-12.832
		c-0.707-0.076-1.394-0.113-2.064-0.113c-7.068,0-12.098,4.128-14.973,9.769c-3.004-5.888-8.131-9.707-15.608-9.707
		c-0.495,0-1,0.017-1.516,0.051c-7.436,0.49-13.823,4.937-15.836,13.604c-3.62,15.592,13.515,31.53,32.959,47.036
		C1175.709,563.565,1191.842,546.159,1187.99,531.157z"/>
	<path fill="#FF1D25" enable-background="new    " d="M1672.147,700.458c-1.88-7.318-7.79-11.953-15.922-12.832
		c-0.707-0.076-1.394-0.113-2.064-0.113c-7.068,0-12.098,4.128-14.973,9.769c-3.004-5.888-8.131-9.707-15.608-9.707
		c-0.495,0-1,0.017-1.516,0.051c-7.436,0.49-13.823,4.937-15.836,13.604c-3.62,15.592,13.515,31.53,32.959,47.036
		C1659.867,732.866,1676,715.46,1672.147,700.458z"/>
	<path fill="#662D91" enable-background="new    " d="M716.677,1115.727c-1.879-7.318-7.79-11.953-15.922-12.832
		c-0.707-0.076-1.394-0.113-2.064-0.113c-7.068,0-12.098,4.128-14.973,9.769c-3.004-5.888-8.131-9.707-15.608-9.707
		c-0.495,0-1,0.017-1.516,0.051c-7.436,0.49-13.823,4.937-15.836,13.604c-3.62,15.592,13.515,31.53,32.959,47.036
		C704.397,1148.135,720.53,1130.728,716.677,1115.727z"/>
	<path fill="#9E005D" enable-background="new    " d="M1457.935,991.495c-1.88-7.318-7.79-11.953-15.922-12.832
		c-0.707-0.076-1.394-0.113-2.064-0.113c-7.068,0-12.098,4.128-14.973,9.769c-3.004-5.888-8.131-9.707-15.608-9.707
		c-0.495,0-1,0.017-1.516,0.051c-7.436,0.49-13.823,4.937-15.836,13.604c-3.62,15.592,13.515,31.53,32.959,47.036
		C1445.654,1023.903,1461.787,1006.497,1457.935,991.495z"/>
	<path fill="#ED1C24" enable-background="new    " d="M1051.737,339.366c-1.88-7.318-7.79-11.953-15.922-12.832
		c-0.707-0.076-1.394-0.113-2.064-0.113c-7.068,0-12.098,4.128-14.973,9.769c-3.004-5.888-8.131-9.707-15.608-9.707
		c-0.495,0-1,0.017-1.516,0.051c-7.436,0.49-13.823,4.937-15.836,13.604c-3.62,15.592,13.515,31.53,32.959,47.036
		C1039.457,371.774,1055.59,354.367,1051.737,339.366z"/>
	<path fill="#8CC63F" enable-background="new    " d="M443.113,1535.567c-1.879-7.318-7.79-11.953-15.922-12.832
		c-0.707-0.076-1.394-0.113-2.064-0.113c-7.068,0-12.098,4.128-14.973,9.769c-3.004-5.888-8.131-9.707-15.608-9.707
		c-0.495,0-1,0.017-1.516,0.051c-7.436,0.49-13.823,4.937-15.836,13.604c-3.62,15.592,13.515,31.53,32.959,47.036
		C430.833,1567.975,446.966,1550.569,443.113,1535.567z"/>
	<path fill="#BDCCD4" enable-background="new    " d="M781.085,366.236c-1.879-7.318-7.79-11.953-15.922-12.832
		c-0.707-0.076-1.394-0.113-2.064-0.113c-7.068,0-12.098,4.128-14.973,9.769c-3.004-5.888-8.131-9.707-15.608-9.707
		c-0.495,0-1,0.017-1.516,0.051c-7.436,0.49-13.823,4.937-15.836,13.604c-3.62,15.592,13.515,31.53,32.959,47.036
		C768.804,398.644,784.937,381.238,781.085,366.236z"/>
	<path fill="#FFFF00" enable-background="new    " d="M1431.168,697.763c-1.879-7.318-7.79-11.953-15.922-12.832
		c-0.707-0.076-1.394-0.113-2.065-0.113c-7.068,0-12.098,4.128-14.973,9.769c-3.004-5.888-8.131-9.707-15.608-9.707
		c-0.495,0-1,0.017-1.516,0.051c-7.436,0.49-13.823,4.937-15.836,13.604c-3.62,15.592,13.515,31.53,32.959,47.036
		C1418.887,730.171,1435.021,712.765,1431.168,697.763z"/>
	<path fill="#C1272D" enable-background="new    " d="M706.857,361.41c-1.88-7.318-7.79-11.953-15.922-12.832
		c-0.707-0.076-1.394-0.113-2.064-0.113c-7.068,0-12.098,4.128-14.973,9.769c-3.004-5.888-8.131-9.707-15.608-9.707
		c-0.495,0-1,0.017-1.516,0.051c-7.436,0.49-13.823,4.937-15.836,13.604c-3.62,15.592,13.515,31.53,32.959,47.036
		C694.577,393.818,710.71,376.412,706.857,361.41z"/>
	<path fill="#C7B299" enable-background="new    " d="M1236.08,175.562c-1.88-7.318-7.79-11.953-15.922-12.832
		c-0.707-0.076-1.394-0.113-2.064-0.113c-7.068,0-12.098,4.128-14.973,9.769c-3.004-5.888-8.131-9.707-15.608-9.707
		c-0.495,0-1,0.017-1.516,0.051c-7.436,0.49-13.823,4.937-15.836,13.604c-3.62,15.592,13.515,31.53,32.959,47.036
		C1223.799,207.969,1239.932,190.563,1236.08,175.562z"/>
	<path fill="#A67C52" enable-background="new    " d="M1380.351,971.172c-1.88-7.318-7.79-11.953-15.922-12.832
		c-0.707-0.076-1.394-0.113-2.064-0.113c-7.068,0-12.098,4.128-14.973,9.769c-3.004-5.888-8.131-9.707-15.608-9.707
		c-0.495,0-1,0.017-1.516,0.051c-7.436,0.49-13.823,4.937-15.836,13.604c-3.62,15.592,13.515,31.53,32.959,47.036
		C1368.071,1003.58,1384.204,986.174,1380.351,971.172z"/>
	<path fill="#662D91" enable-background="new    " d="M741.745,1414.939c-1.88-7.318-7.79-11.953-15.922-12.832
		c-0.707-0.076-1.394-0.113-2.064-0.113c-7.068,0-12.098,4.128-14.973,9.769c-3.004-5.888-8.131-9.707-15.608-9.707
		c-0.495,0-1,0.017-1.516,0.051c-7.436,0.49-13.823,4.937-15.836,13.604c-3.62,15.592,13.515,31.53,32.959,47.036
		C729.464,1447.347,745.597,1429.941,741.745,1414.939z"/>
	<path fill="#662D91" enable-background="new    " d="M1624.477,842.862c-1.88-7.318-7.79-11.953-15.922-12.832
		c-0.707-0.076-1.394-0.113-2.064-0.113c-7.068,0-12.098,4.128-14.973,9.769c-3.004-5.888-8.131-9.707-15.608-9.707
		c-0.495,0-1,0.017-1.516,0.051c-7.436,0.49-13.823,4.937-15.836,13.604c-3.62,15.592,13.515,31.53,32.959,47.036
		C1612.197,875.27,1628.33,857.863,1624.477,842.862z"/>
	<path fill="#0071BC" enable-background="new    " d="M1346.223,688.847c-1.88-7.318-7.79-11.953-15.922-12.832
		c-0.707-0.076-1.394-0.113-2.064-0.113c-7.068,0-12.098,4.128-14.973,9.769c-3.004-5.888-8.131-9.707-15.608-9.707
		c-0.495,0-1,0.017-1.516,0.051c-7.436,0.49-13.823,4.937-15.836,13.604c-3.62,15.592,13.515,31.53,32.959,47.036
		C1333.943,721.255,1350.076,703.848,1346.223,688.847z"/>
	<path fill="#FF1D25" enable-background="new    " d="M699.08,923.484c-1.879-7.318-7.79-11.953-15.922-12.832
		c-0.707-0.076-1.394-0.113-2.064-0.113c-7.068,0-12.098,4.128-14.973,9.769c-3.004-5.888-8.131-9.707-15.608-9.707
		c-0.495,0-1,0.017-1.516,0.051c-7.436,0.49-13.823,4.937-15.836,13.604c-3.62,15.592,13.515,31.53,32.959,47.036
		C686.799,955.892,702.933,938.486,699.08,923.484z"/>
	<path fill="#0000FF" enable-background="new    " d="M1193.534,1173.046c-1.879-7.318-7.79-11.953-15.922-12.832
		c-0.707-0.076-1.394-0.113-2.064-0.113c-7.068,0-12.098,4.128-14.973,9.769c-3.004-5.888-8.131-9.707-15.608-9.707
		c-0.495,0-1,0.017-1.516,0.051c-7.436,0.49-13.823,4.937-15.836,13.604c-3.62,15.592,13.515,31.53,32.959,47.036
		C1181.253,1205.453,1197.387,1188.047,1193.534,1173.046z"/>
	<path fill="#9E005D" enable-background="new    " d="M1012.908,1308.62c-1.879-7.318-7.79-11.953-15.922-12.832
		c-0.707-0.076-1.394-0.113-2.065-0.113c-7.068,0-12.098,4.128-14.973,9.77c-3.004-5.888-8.131-9.707-15.608-9.707
		c-0.495,0-1,0.017-1.516,0.051c-7.436,0.49-13.823,4.937-15.836,13.604c-3.62,15.592,13.515,31.53,32.959,47.036
		C1000.627,1341.028,1016.76,1323.621,1012.908,1308.62z"/>
	<path fill="#FF0000" enable-background="new    " d="M1289.672,117.36c-1.88-7.318-7.79-11.953-15.922-12.832
		c-0.707-0.076-1.394-0.113-2.064-0.113c-7.068,0-12.098,4.128-14.973,9.769c-3.004-5.888-8.131-9.707-15.608-9.707
		c-0.495,0-1,0.017-1.516,0.051c-7.436,0.49-13.823,4.937-15.836,13.604c-3.62,15.592,13.515,31.53,32.959,47.036
		C1277.391,149.768,1293.525,132.361,1289.672,117.36z"/>
	<path fill="#ED1E79" enable-background="new    " d="M615.865,360.87c-1.88-7.318-7.79-11.953-15.922-12.832
		c-0.707-0.076-1.394-0.113-2.064-0.113c-7.068,0-12.098,4.128-14.973,9.769c-3.004-5.888-8.131-9.707-15.608-9.707
		c-0.495,0-1,0.017-1.516,0.051c-7.436,0.49-13.823,4.937-15.836,13.604c-3.62,15.592,13.515,31.53,32.959,47.036
		C603.585,393.278,619.718,375.872,615.865,360.87z"/>
	<path fill="#00FF00" enable-background="new    " d="M335.762,855.583c-1.879-7.318-7.79-11.953-15.922-12.832
		c-0.707-0.076-1.394-0.113-2.064-0.113c-7.068,0-12.098,4.128-14.973,9.769c-3.004-5.888-8.131-9.707-15.608-9.707
		c-0.495,0-1,0.017-1.516,0.051c-7.436,0.49-13.823,4.937-15.836,13.604c-3.62,15.592,13.515,31.53,32.959,47.036
		C323.481,887.991,339.614,870.585,335.762,855.583z"/>
	<path fill="#9E005D" enable-background="new    " d="M91.458,795.818c-1.879-7.318-7.79-11.953-15.922-12.832
		c-0.707-0.076-1.394-0.113-2.064-0.113c-7.068,0-12.098,4.128-14.973,9.769c-3.004-5.888-8.131-9.707-15.608-9.707
		c-0.495,0-1,0.017-1.516,0.051c-7.436,0.49-13.823,4.937-15.836,13.604c-3.62,15.592,13.515,31.53,32.959,47.036
		C79.178,828.226,95.311,810.82,91.458,795.818z"/>
	<path fill="#9E005D" enable-background="new    " d="M387.995,693.772c-1.879-7.318-7.79-11.953-15.922-12.832
		c-0.707-0.076-1.394-0.113-2.064-0.113c-7.068,0-12.098,4.128-14.973,9.769c-3.004-5.888-8.131-9.707-15.608-9.707
		c-0.495,0-1,0.017-1.516,0.051c-7.436,0.49-13.823,4.937-15.836,13.604c-3.62,15.592,13.515,31.53,32.959,47.036
		C375.714,726.18,391.848,708.774,387.995,693.772z"/>
	<path fill="#F7931E" enable-background="new    " d="M925.101,871.294c-1.88-7.318-7.79-11.953-15.922-12.832
		c-0.707-0.076-1.394-0.113-2.065-0.113c-7.068,0-12.098,4.128-14.973,9.769c-3.004-5.888-8.131-9.707-15.608-9.707
		c-0.495,0-1,0.017-1.516,0.051c-7.436,0.49-13.823,4.937-15.836,13.604c-3.62,15.592,13.515,31.53,32.959,47.036
		C912.821,903.702,928.954,886.295,925.101,871.294z"/>
	<path fill="#FF931E" enable-background="new    " d="M479.113,1400.856c-1.879-7.318-7.79-11.953-15.922-12.832
		c-0.707-0.076-1.394-0.113-2.064-0.113c-7.068,0-12.098,4.128-14.973,9.769c-3.004-5.888-8.131-9.707-15.608-9.707
		c-0.495,0-1,0.017-1.516,0.051c-7.436,0.49-13.823,4.937-15.836,13.604c-3.62,15.592,13.515,31.53,32.959,47.036
		C466.833,1433.264,482.966,1415.857,479.113,1400.856z"/>
	<path fill="#D9E021" enable-background="new    " d="M765.852,285.412c-1.88-7.318-7.79-11.953-15.922-12.832
		c-0.707-0.076-1.394-0.113-2.064-0.113c-7.068,0-12.098,4.128-14.973,9.769c-3.004-5.888-8.131-9.707-15.608-9.707
		c-0.495,0-1,0.017-1.516,0.051c-7.436,0.49-13.823,4.937-15.836,13.604c-3.62,15.592,13.515,31.53,32.959,47.036
		C753.572,317.82,769.705,300.414,765.852,285.412z"/>
	<path fill="#8C6239" enable-background="new    " d="M502.958,1326.735c-1.879-7.318-7.79-11.953-15.922-12.832
		c-0.707-0.076-1.394-0.113-2.064-0.113c-7.068,0-12.098,4.128-14.973,9.769c-3.004-5.888-8.131-9.707-15.608-9.707
		c-0.495,0-1,0.017-1.516,0.051c-7.436,0.49-13.823,4.937-15.836,13.604c-3.62,15.592,13.515,31.53,32.959,47.036
		C490.677,1359.143,506.81,1341.736,502.958,1326.735z"/>
	<path fill="#998675" enable-background="new    " d="M1023.598,1226.72c-1.879-7.318-7.79-11.953-15.922-12.832
		c-0.707-0.076-1.394-0.113-2.064-0.113c-7.068,0-12.098,4.128-14.973,9.769c-3.004-5.888-8.131-9.707-15.608-9.707
		c-0.495,0-1,0.017-1.516,0.051c-7.436,0.49-13.823,4.937-15.836,13.604c-3.62,15.592,13.515,31.53,32.959,47.036
		C1011.318,1259.128,1027.451,1241.721,1023.598,1226.72z"/>
	<path fill="#FF7BAC" enable-background="new    " d="M262.039,798.368c-1.879-7.318-7.79-11.953-15.922-12.832
		c-0.707-0.076-1.394-0.113-2.064-0.113c-7.068,0-12.098,4.128-14.973,9.769c-3.004-5.888-8.131-9.707-15.608-9.707
		c-0.495,0-1,0.017-1.516,0.051c-7.436,0.49-13.823,4.937-15.836,13.604c-3.62,15.592,13.515,31.53,32.959,47.036
		C249.759,830.776,265.892,813.37,262.039,798.368z"/>
	<path fill="#F15A24" enable-background="new    " d="M1091.222,1289.432c-1.88-7.318-7.79-11.953-15.922-12.832
		c-0.707-0.076-1.394-0.114-2.064-0.114c-7.068,0-12.098,4.128-14.973,9.77c-3.004-5.888-8.131-9.707-15.608-9.707
		c-0.495,0-1,0.017-1.516,0.051c-7.436,0.49-13.823,4.937-15.836,13.604c-3.62,15.592,13.515,31.53,32.959,47.036
		C1078.942,1321.84,1095.075,1304.433,1091.222,1289.432z"/>
	<path fill="#F15A24" enable-background="new    " d="M721.556,1208.448c-1.879-7.318-7.79-11.953-15.922-12.832
		c-0.707-0.076-1.394-0.113-2.064-0.113c-7.068,0-12.098,4.128-14.973,9.769c-3.004-5.888-8.131-9.707-15.608-9.707
		c-0.495,0-1,0.017-1.516,0.051c-7.436,0.49-13.823,4.937-15.836,13.604c-3.62,15.592,13.515,31.53,32.959,47.036
		C709.276,1240.856,725.409,1223.45,721.556,1208.448z"/>
	<path fill="#C1272D" enable-background="new    " d="M1127.895,370.798c-1.879-7.318-7.79-11.953-15.922-12.832
		c-0.707-0.076-1.394-0.113-2.064-0.113c-7.068,0-12.098,4.128-14.973,9.769c-3.004-5.888-8.131-9.707-15.608-9.707
		c-0.495,0-1,0.017-1.516,0.051c-7.436,0.49-13.823,4.937-15.836,13.604c-3.62,15.592,13.515,31.53,32.959,47.036
		C1115.614,403.206,1131.747,385.8,1127.895,370.798z"/>
	<path fill="#00FF00" enable-background="new    " d="M1290.588,409.465c-1.88-7.318-7.79-11.953-15.922-12.832
		c-0.707-0.076-1.394-0.113-2.064-0.113c-7.068,0-12.098,4.128-14.973,9.769c-3.004-5.888-8.131-9.707-15.608-9.707
		c-0.495,0-1,0.017-1.516,0.051c-7.436,0.49-13.823,4.937-15.836,13.604c-3.62,15.592,13.515,31.53,32.959,47.036
		C1278.307,441.873,1294.44,424.467,1290.588,409.465z"/>
	<path fill="#0000FF" enable-background="new    " d="M772.356,898.12c-1.879-7.318-7.79-11.953-15.922-12.832
		c-0.707-0.076-1.394-0.113-2.065-0.113c-7.068,0-12.098,4.128-14.973,9.769c-3.004-5.888-8.131-9.707-15.608-9.707
		c-0.495,0-1,0.017-1.516,0.051c-7.436,0.49-13.823,4.937-15.836,13.604c-3.62,15.592,13.515,31.53,32.959,47.036
		C760.075,930.528,776.208,913.121,772.356,898.12z"/>
	<path fill="#1B1464" enable-background="new    " d="M439.321,347.452c-1.879-7.318-7.79-11.953-15.922-12.832
		c-0.707-0.076-1.394-0.113-2.064-0.113c-7.068,0-12.098,4.128-14.973,9.769c-3.004-5.888-8.131-9.707-15.608-9.707
		c-0.495,0-1,0.017-1.516,0.051c-7.436,0.49-13.823,4.937-15.836,13.604c-3.62,15.592,13.515,31.53,32.959,47.036
		C427.041,379.86,443.174,362.453,439.321,347.452z"/>
	<path fill="#FF931E" enable-background="new    " d="M85.733,634.599c-1.879-7.318-7.79-11.953-15.922-12.832
		c-0.707-0.076-1.394-0.113-2.064-0.113c-7.068,0-12.098,4.128-14.973,9.769c-3.004-5.888-8.131-9.707-15.608-9.707
		c-0.495,0-1,0.017-1.516,0.051c-7.436,0.49-13.823,4.937-15.836,13.604c-3.62,15.592,13.515,31.53,32.959,47.036
		C73.452,667.007,89.585,649.6,85.733,634.599z"/>
	<path fill="#BDCCD4" enable-background="new    " d="M1037.016,536.766c-1.88-7.318-7.79-11.953-15.922-12.832
		c-0.707-0.076-1.394-0.113-2.064-0.113c-7.068,0-12.098,4.128-14.973,9.769c-3.004-5.888-8.131-9.707-15.608-9.707
		c-0.495,0-1,0.017-1.516,0.051c-7.436,0.49-13.823,4.937-15.836,13.604c-3.62,15.592,13.515,31.53,32.959,47.036
		C1024.736,569.174,1040.869,551.767,1037.016,536.766z"/>
	<path fill="#8CC63F" enable-background="new    " d="M542.369,395.497c-1.88-7.318-7.79-11.953-15.922-12.832
		c-0.707-0.076-1.394-0.113-2.064-0.113c-7.068,0-12.098,4.128-14.973,9.769c-3.004-5.888-8.131-9.707-15.608-9.707
		c-0.495,0-1,0.017-1.516,0.051c-7.436,0.49-13.823,4.937-15.836,13.604c-3.62,15.592,13.515,31.53,32.959,47.036
		C530.089,427.905,546.222,410.499,542.369,395.497z"/>
	<path fill="#93278F" enable-background="new    " d="M512.654,487.503c-1.879-7.318-7.79-11.953-15.922-12.832
		c-0.707-0.076-1.394-0.113-2.064-0.113c-7.068,0-12.098,4.128-14.973,9.769c-3.004-5.888-8.131-9.707-15.608-9.707
		c-0.495,0-1,0.017-1.516,0.051c-7.436,0.49-13.823,4.937-15.836,13.604c-3.62,15.592,13.515,31.53,32.959,47.036
		C500.373,519.911,516.506,502.505,512.654,487.503z"/>
	<path fill="#006837" enable-background="new    " d="M762.395,445.815c-1.88-7.318-7.79-11.953-15.922-12.832
		c-0.707-0.076-1.394-0.113-2.064-0.113c-7.068,0-12.098,4.128-14.973,9.769c-3.004-5.888-8.131-9.707-15.608-9.707
		c-0.495,0-1,0.017-1.516,0.051c-7.436,0.49-13.823,4.937-15.836,13.604c-3.62,15.592,13.515,31.53,32.959,47.036
		C750.115,478.223,766.248,460.816,762.395,445.815z"/>
	<path fill="#534741" enable-background="new    " d="M1053.457,83.959c-1.879-7.318-7.79-11.953-15.922-12.832
		c-0.707-0.076-1.394-0.113-2.064-0.113c-7.068,0-12.098,4.128-14.973,9.769c-3.004-5.888-8.131-9.707-15.608-9.707
		c-0.495,0-1,0.017-1.516,0.051c-7.436,0.49-13.823,4.937-15.836,13.604c-3.62,15.592,13.515,31.53,32.959,47.036
		C1041.176,116.367,1057.309,98.96,1053.457,83.959z"/>
	<path fill="#22B573" enable-background="new    " d="M614.79,173.277c-1.88-7.318-7.79-11.953-15.922-12.832
		c-0.707-0.076-1.394-0.113-2.064-0.113c-7.068,0-12.098,4.128-14.973,9.769c-3.004-5.888-8.131-9.707-15.608-9.707
		c-0.495,0-1,0.017-1.516,0.051c-7.436,0.49-13.823,4.937-15.836,13.604c-3.62,15.592,13.515,31.53,32.959,47.036
		C602.509,205.685,618.642,188.278,614.79,173.277z"/>
	<path fill="#C7B299" enable-background="new    " d="M1193.054,1539.201c-1.879-7.318-7.79-11.953-15.922-12.832
		c-0.707-0.076-1.394-0.113-2.064-0.113c-7.068,0-12.098,4.128-14.973,9.769c-3.004-5.888-8.131-9.707-15.608-9.707
		c-0.495,0-1,0.017-1.516,0.051c-7.436,0.49-13.823,4.937-15.836,13.604c-3.62,15.592,13.515,31.53,32.959,47.036
		C1180.774,1571.609,1196.907,1554.203,1193.054,1539.201z"/>
	<path fill="#754C24" enable-background="new    " d="M1157.819,1348.639c-1.879-7.318-7.79-11.953-15.922-12.832
		c-0.707-0.076-1.394-0.113-2.064-0.113c-7.068,0-12.098,4.128-14.973,9.769c-3.004-5.888-8.131-9.707-15.608-9.707
		c-0.495,0-1,0.017-1.516,0.051c-7.436,0.49-13.823,4.937-15.836,13.604c-3.62,15.592,13.515,31.53,32.959,47.036
		C1145.539,1381.047,1161.672,1363.641,1157.819,1348.639z"/>
	<path fill="#8C6239" enable-background="new    " d="M281.696,573.92c-1.879-7.318-7.79-11.953-15.922-12.832
		c-0.707-0.076-1.394-0.113-2.064-0.113c-7.068,0-12.098,4.128-14.973,9.769c-3.004-5.888-8.131-9.707-15.608-9.707
		c-0.495,0-1,0.017-1.516,0.051c-7.436,0.49-13.823,4.937-15.836,13.604c-3.62,15.592,13.515,31.53,32.959,47.036
		C269.415,606.328,285.548,588.921,281.696,573.92z"/>
	<path fill="#0071BC" enable-background="new    " d="M1106.027,1501.746c-1.88-7.318-7.79-11.953-15.922-12.832
		c-0.707-0.076-1.394-0.113-2.065-0.113c-7.068,0-12.098,4.128-14.973,9.77c-3.004-5.888-8.131-9.707-15.608-9.707
		c-0.495,0-1,0.017-1.516,0.051c-7.436,0.49-13.823,4.937-15.836,13.604c-3.62,15.592,13.515,31.53,32.959,47.036
		C1093.746,1534.154,1109.879,1516.748,1106.027,1501.746z"/>
	<path fill="#C69C6D" enable-background="new    " d="M1315.721,256.925c-1.879-7.318-7.79-11.953-15.922-12.832
		c-0.707-0.076-1.394-0.113-2.064-0.113c-7.068,0-12.098,4.128-14.973,9.769c-3.004-5.888-8.131-9.707-15.608-9.707
		c-0.495,0-1,0.017-1.516,0.051c-7.436,0.49-13.823,4.937-15.836,13.604c-3.62,15.592,13.515,31.53,32.959,47.036
		C1303.441,289.333,1319.574,271.927,1315.721,256.925z"/>
	<path fill="#29ABE2" enable-background="new    " d="M1065.748,1376.745c-1.88-7.318-7.79-11.953-15.922-12.832
		c-0.707-0.076-1.394-0.113-2.064-0.113c-7.068,0-12.098,4.128-14.973,9.769c-3.004-5.888-8.131-9.707-15.608-9.707
		c-0.495,0-1,0.017-1.516,0.051c-7.436,0.49-13.823,4.937-15.836,13.604c-3.62,15.592,13.515,31.53,32.959,47.036
		C1053.467,1409.152,1069.601,1391.746,1065.748,1376.745z"/>
	<path fill="#FF1D25" enable-background="new    " d="M886.684,1027.093c-1.879-7.318-7.79-11.953-15.922-12.832
		c-0.707-0.076-1.394-0.113-2.064-0.113c-7.068,0-12.098,4.128-14.973,9.769c-3.004-5.888-8.131-9.707-15.608-9.707
		c-0.495,0-1,0.017-1.516,0.051c-7.436,0.49-13.823,4.937-15.836,13.604c-3.62,15.592,13.515,31.53,32.959,47.036
		C874.404,1059.501,890.537,1042.094,886.684,1027.093z"/>
	<path fill="#3FA9F5" enable-background="new    " d="M817.964,973.13c-1.879-7.318-7.79-11.953-15.922-12.832
		c-0.707-0.076-1.394-0.113-2.065-0.113c-7.068,0-12.098,4.128-14.973,9.769c-3.004-5.888-8.131-9.707-15.608-9.707
		c-0.495,0-1,0.017-1.516,0.051c-7.436,0.49-13.823,4.937-15.836,13.604c-3.62,15.592,13.515,31.53,32.959,47.036
		C805.683,1005.538,821.817,988.132,817.964,973.13z"/>
	<path fill="#C1272D" enable-background="new    " d="M1157.2,450.976c-1.88-7.318-7.79-11.953-15.922-12.832
		c-0.707-0.076-1.394-0.113-2.064-0.113c-7.068,0-12.098,4.128-14.973,9.769c-3.004-5.888-8.131-9.707-15.608-9.707
		c-0.495,0-1,0.017-1.516,0.051c-7.436,0.49-13.823,4.937-15.836,13.604c-3.62,15.592,13.515,31.53,32.959,47.036
		C1144.919,483.384,1161.052,465.978,1157.2,450.976z"/>
	<path fill="#1B1464" enable-background="new    " d="M1093.208,487.268c-1.879-7.318-7.79-11.953-15.922-12.832
		c-0.707-0.076-1.394-0.113-2.064-0.113c-7.068,0-12.098,4.128-14.973,9.769c-3.004-5.888-8.131-9.707-15.608-9.707
		c-0.495,0-1,0.017-1.516,0.051c-7.436,0.49-13.823,4.937-15.836,13.604c-3.62,15.592,13.515,31.53,32.959,47.036
		C1080.928,519.676,1097.061,502.27,1093.208,487.268z"/>
	<path fill="#9E005D" enable-background="new    " d="M792.013,1250.326c-1.88-7.318-7.79-11.953-15.922-12.832
		c-0.707-0.076-1.394-0.113-2.064-0.113c-7.068,0-12.098,4.128-14.973,9.769c-3.004-5.888-8.131-9.707-15.608-9.707
		c-0.495,0-1,0.017-1.516,0.051c-7.436,0.49-13.823,4.937-15.836,13.604c-3.62,15.592,13.515,31.53,32.959,47.036
		C779.733,1282.734,795.866,1265.328,792.013,1250.326z"/>
	<path fill="#ED1E79" enable-background="new    " d="M1360.865,1547.2c-1.88-7.318-7.79-11.953-15.922-12.832
		c-0.707-0.076-1.394-0.113-2.064-0.113c-7.068,0-12.098,4.128-14.973,9.77c-3.004-5.888-8.131-9.707-15.608-9.707
		c-0.495,0-1,0.017-1.516,0.051c-7.436,0.49-13.823,4.937-15.836,13.604c-3.62,15.592,13.515,31.53,32.959,47.036
		C1348.585,1579.608,1364.718,1562.201,1360.865,1547.2z"/>
	<path fill="#FBB03B" enable-background="new    " d="M1117.917,46.372c-1.879-7.318-7.79-11.953-15.922-12.832
		c-0.707-0.076-1.394-0.113-2.064-0.113c-7.068,0-12.098,4.128-14.973,9.769c-3.004-5.888-8.131-9.707-15.608-9.707
		c-0.495,0-1,0.017-1.516,0.051c-7.436,0.49-13.823,4.937-15.836,13.604c-3.62,15.592,13.515,31.53,32.959,47.036
		C1105.636,78.78,1121.769,61.374,1117.917,46.372z"/>
	<path fill="#C69C6D" enable-background="new    " d="M1343.558,1234.012c-1.879-7.318-7.79-11.953-15.922-12.832
		c-0.707-0.076-1.394-0.113-2.064-0.113c-7.068,0-12.098,4.128-14.973,9.769c-3.004-5.888-8.131-9.707-15.608-9.707
		c-0.495,0-1,0.017-1.516,0.051c-7.436,0.49-13.823,4.937-15.836,13.604c-3.62,15.592,13.515,31.53,32.959,47.036
		C1331.277,1266.42,1347.41,1249.014,1343.558,1234.012z"/>
	<path fill="#FF0000" enable-background="new    " d="M1661.368,778.385c-1.879-7.318-7.79-11.953-15.922-12.832
		c-0.707-0.076-1.394-0.113-2.065-0.113c-7.068,0-12.098,4.128-14.973,9.769c-3.004-5.888-8.131-9.707-15.608-9.707
		c-0.495,0-1,0.017-1.516,0.051c-7.436,0.49-13.823,4.937-15.836,13.604c-3.62,15.592,13.515,31.53,32.959,47.036
		C1649.087,810.793,1665.22,793.387,1661.368,778.385z"/>
	<path fill="#7AC943" enable-background="new    " d="M737.879,989.355c-1.879-7.318-7.79-11.953-15.922-12.832
		c-0.707-0.076-1.394-0.113-2.064-0.113c-7.068,0-12.098,4.128-14.973,9.769c-3.004-5.888-8.131-9.707-15.608-9.707
		c-0.495,0-1,0.017-1.516,0.051c-7.436,0.49-13.823,4.937-15.836,13.604c-3.62,15.592,13.515,31.53,32.959,47.036
		C725.599,1021.763,741.732,1004.356,737.879,989.355z"/>
	<path fill="#FCEE21" enable-background="new    " d="M1429.613,570.36c-1.88-7.318-7.79-11.953-15.922-12.832
		c-0.707-0.076-1.394-0.113-2.064-0.113c-7.068,0-12.098,4.128-14.973,9.769c-3.004-5.888-8.131-9.707-15.608-9.707
		c-0.495,0-1,0.017-1.516,0.051c-7.436,0.49-13.823,4.937-15.836,13.604c-3.62,15.592,13.515,31.53,32.959,47.036
		C1417.332,602.768,1433.465,585.362,1429.613,570.36z"/>
	<path fill="#662D91" enable-background="new    " d="M82.52,713.556c-1.879-7.318-7.79-11.953-15.922-12.832
		c-0.707-0.076-1.394-0.113-2.064-0.113c-7.068,0-12.098,4.128-14.973,9.769c-3.004-5.888-8.131-9.707-15.608-9.707
		c-0.495,0-1,0.017-1.516,0.051c-7.436,0.49-13.823,4.937-15.836,13.604c-3.62,15.592,13.515,31.53,32.959,47.036
		C70.24,745.964,86.373,728.557,82.52,713.556z"/>
	<path fill="#006837" enable-background="new    " d="M717.526,516.717c-1.88-7.318-7.79-11.953-15.922-12.832
		c-0.707-0.076-1.394-0.113-2.064-0.113c-7.068,0-12.098,4.128-14.973,9.769c-3.004-5.888-8.131-9.707-15.608-9.707
		c-0.495,0-1,0.017-1.516,0.051c-7.436,0.49-13.823,4.937-15.836,13.604c-3.62,15.592,13.515,31.53,32.959,47.036
		C705.246,549.125,721.379,531.719,717.526,516.717z"/>
	<path fill="#FF931E" enable-background="new    " d="M1453.184,772.176c-1.88-7.318-7.79-11.953-15.922-12.832
		c-0.707-0.076-1.394-0.113-2.065-0.113c-7.068,0-12.098,4.128-14.973,9.769c-3.004-5.888-8.131-9.707-15.608-9.707
		c-0.495,0-1,0.017-1.516,0.051c-7.436,0.49-13.823,4.937-15.836,13.604c-3.62,15.592,13.515,31.53,32.959,47.036
		C1440.903,804.584,1457.036,787.177,1453.184,772.176z"/>
	<path fill="#1B1464" enable-background="new    " d="M580.831,37.851c-1.879-7.318-7.79-11.953-15.922-12.832
		c-0.707-0.076-1.394-0.113-2.064-0.113c-7.068,0-12.098,4.128-14.973,9.769c-3.004-5.888-8.131-9.707-15.608-9.707
		c-0.495,0-1,0.017-1.516,0.051c-7.436,0.49-13.823,4.937-15.836,13.604c-3.62,15.592,13.515,31.53,32.959,47.036
		C568.55,70.259,584.683,52.852,580.831,37.851z"/>
	<path fill="#0000FF" enable-background="new    " d="M593.222,1322.58c-1.879-7.318-7.79-11.953-15.922-12.832
		c-0.707-0.076-1.394-0.113-2.065-0.113c-7.068,0-12.098,4.128-14.973,9.769c-3.004-5.888-8.131-9.707-15.608-9.707
		c-0.495,0-1,0.017-1.516,0.051c-7.436,0.49-13.823,4.937-15.836,13.604c-3.62,15.592,13.515,31.53,32.959,47.036
		C580.941,1354.988,597.075,1337.581,593.222,1322.58z"/>
	<path fill="#FF1D25" enable-background="new    " d="M1591.994,658.116c-1.88-7.318-7.79-11.953-15.922-12.832
		c-0.707-0.076-1.394-0.113-2.064-0.113c-7.068,0-12.098,4.128-14.973,9.769c-3.004-5.888-8.131-9.707-15.608-9.707
		c-0.495,0-1,0.017-1.516,0.051c-7.436,0.49-13.823,4.937-15.836,13.604c-3.62,15.592,13.515,31.53,32.959,47.036
		C1579.713,690.524,1595.846,673.118,1591.994,658.116z"/>
	<path fill="#662D91" enable-background="new    " d="M655.907,1444.317c-1.88-7.318-7.79-11.953-15.922-12.832
		c-0.707-0.076-1.394-0.113-2.064-0.113c-7.068,0-12.098,4.128-14.973,9.77c-3.004-5.888-8.131-9.707-15.608-9.707
		c-0.495,0-1,0.017-1.516,0.051c-7.436,0.49-13.823,4.937-15.836,13.604c-3.62,15.592,13.515,31.53,32.959,47.036
		C643.627,1476.725,659.76,1459.318,655.907,1444.317z"/>
	<path fill="#FBB03B" enable-background="new    " d="M1010.354,150.611c-1.88-7.318-7.79-11.953-15.922-12.832
		c-0.707-0.076-1.394-0.113-2.064-0.113c-7.068,0-12.098,4.128-14.973,9.769c-3.004-5.888-8.131-9.707-15.608-9.707
		c-0.495,0-1,0.017-1.516,0.051c-7.436,0.49-13.823,4.937-15.836,13.604c-3.62,15.592,13.515,31.53,32.959,47.036
		C998.073,183.019,1014.206,165.612,1010.354,150.611z"/>
	<path fill="#29ABE2" enable-background="new    " d="M1071.131,202.6c-1.88-7.318-7.79-11.953-15.922-12.832
		c-0.707-0.076-1.394-0.113-2.064-0.113c-7.068,0-12.098,4.128-14.973,9.769c-3.004-5.888-8.131-9.707-15.608-9.707
		c-0.495,0-1,0.017-1.516,0.051c-7.436,0.49-13.823,4.937-15.836,13.604c-3.62,15.592,13.515,31.53,32.959,47.036
		C1058.851,235.008,1074.984,217.602,1071.131,202.6z"/>
	<path fill="#0000FF" enable-background="new    " d="M784.049,1338.768c-1.88-7.318-7.79-11.953-15.922-12.832
		c-0.707-0.076-1.394-0.113-2.065-0.113c-7.068,0-12.098,4.128-14.973,9.769c-3.004-5.888-8.131-9.707-15.608-9.707
		c-0.495,0-1,0.017-1.516,0.051c-7.436,0.49-13.823,4.937-15.836,13.604c-3.62,15.592,13.515,31.53,32.959,47.036
		C771.768,1371.176,787.901,1353.769,784.049,1338.768z"/>
	<path fill="#009245" enable-background="new    " d="M1188.136,111.116c-1.88-7.318-7.79-11.953-15.922-12.832
		c-0.707-0.076-1.394-0.113-2.064-0.113c-7.068,0-12.098,4.128-14.973,9.769c-3.004-5.888-8.131-9.707-15.608-9.707
		c-0.495,0-1,0.017-1.516,0.051c-7.436,0.49-13.823,4.937-15.836,13.604c-3.62,15.592,13.515,31.53,32.959,47.036
		C1175.856,143.524,1191.989,126.118,1188.136,111.116z"/>
	<path fill="#D4145A" enable-background="new    " d="M707.41,136.127c-1.88-7.318-7.79-11.953-15.922-12.832
		c-0.707-0.076-1.394-0.113-2.064-0.113c-7.068,0-12.098,4.128-14.973,9.769c-3.004-5.888-8.131-9.707-15.608-9.707
		c-0.495,0-1,0.017-1.516,0.051c-7.436,0.49-13.823,4.937-15.836,13.604c-3.62,15.592,13.515,31.53,32.959,47.036
		C695.129,168.535,711.262,151.128,707.41,136.127z"/>
	<path fill="#8CC63F" enable-background="new    " d="M162.447,663.747c-1.879-7.318-7.79-11.953-15.922-12.832
		c-0.707-0.076-1.394-0.113-2.064-0.113c-7.068,0-12.098,4.128-14.973,9.769c-3.004-5.888-8.131-9.707-15.608-9.707
		c-0.495,0-1,0.017-1.516,0.051c-7.436,0.49-13.823,4.937-15.836,13.604c-3.62,15.592,13.515,31.53,32.959,47.036
		C150.167,696.155,166.3,678.748,162.447,663.747z"/>
	<path fill="#8CC63F" enable-background="new    " d="M1040.503,270.755c-1.88-7.318-7.79-11.953-15.922-12.832
		c-0.707-0.076-1.394-0.113-2.064-0.113c-7.068,0-12.098,4.128-14.973,9.769c-3.004-5.888-8.131-9.707-15.608-9.707
		c-0.495,0-1,0.017-1.516,0.051c-7.436,0.49-13.823,4.937-15.836,13.604c-3.62,15.592,13.515,31.53,32.959,47.036
		C1028.222,303.163,1044.355,285.756,1040.503,270.755z"/>
	<path fill="#93278F" enable-background="new    " d="M789.518,1154.823c-1.879-7.318-7.79-11.953-15.922-12.832
		c-0.707-0.076-1.394-0.113-2.065-0.113c-7.068,0-12.098,4.128-14.973,9.769c-3.004-5.888-8.131-9.707-15.608-9.707
		c-0.495,0-1,0.017-1.516,0.051c-7.436,0.49-13.823,4.937-15.836,13.604c-3.62,15.592,13.515,31.53,32.959,47.036
		C777.237,1187.231,793.37,1169.825,789.518,1154.823z"/>
	<path fill="#FF7BAC" enable-background="new    " d="M430.127,266.669c-1.879-7.318-7.79-11.953-15.922-12.832
		c-0.707-0.076-1.394-0.113-2.064-0.113c-7.068,0-12.098,4.128-14.973,9.769c-3.004-5.888-8.131-9.707-15.608-9.707
		c-0.495,0-1,0.017-1.516,0.051c-7.436,0.49-13.823,4.937-15.836,13.604c-3.62,15.592,13.515,31.53,32.959,47.036
		C417.847,299.077,433.98,281.671,430.127,266.669z"/>
	<path fill="#7AC943" enable-background="new    " d="M981.996,1392.937c-1.879-7.318-7.79-11.953-15.922-12.832
		c-0.707-0.076-1.394-0.113-2.064-0.113c-7.068,0-12.098,4.128-14.973,9.769c-3.004-5.888-8.131-9.707-15.608-9.707
		c-0.495,0-1,0.017-1.516,0.051c-7.436,0.49-13.823,4.937-15.836,13.604c-3.62,15.592,13.515,31.53,32.959,47.036
		C969.716,1425.344,985.849,1407.938,981.996,1392.937z"/>
	<path fill="#0071BC" enable-background="new    " d="M1543.339,798.146c-1.879-7.318-7.79-11.953-15.922-12.832
		c-0.707-0.076-1.394-0.113-2.064-0.113c-7.068,0-12.098,4.128-14.973,9.769c-3.004-5.888-8.131-9.707-15.608-9.707
		c-0.495,0-1,0.017-1.516,0.051c-7.436,0.49-13.823,4.937-15.836,13.604c-3.62,15.592,13.515,31.53,32.959,47.036
		C1531.059,830.554,1547.192,813.148,1543.339,798.146z"/>
	<path fill="#FF00FF" enable-background="new    " d="M606.703,467.529c-1.879-7.318-7.79-11.953-15.922-12.832
		c-0.707-0.076-1.394-0.113-2.064-0.113c-7.068,0-12.098,4.128-14.973,9.769c-3.004-5.888-8.131-9.707-15.608-9.707
		c-0.495,0-1,0.017-1.516,0.051c-7.436,0.49-13.823,4.937-15.836,13.604c-3.62,15.592,13.515,31.53,32.959,47.036
		C594.422,499.937,610.555,482.531,606.703,467.529z"/>
	<path fill="#FF7BAC" enable-background="new    " d="M593.051,265.313c-1.879-7.318-7.79-11.953-15.922-12.832
		c-0.707-0.076-1.394-0.113-2.064-0.113c-7.068,0-12.098,4.128-14.973,9.769c-3.004-5.888-8.131-9.707-15.608-9.707
		c-0.495,0-1,0.017-1.516,0.051c-7.436,0.49-13.823,4.937-15.836,13.604c-3.62,15.592,13.515,31.53,32.959,47.036
		C580.77,297.721,596.903,280.314,593.051,265.313z"/>
	<path fill="#FF1D25" enable-background="new    " d="M829.324,1408.637c-1.879-7.318-7.79-11.953-15.922-12.832
		c-0.707-0.076-1.394-0.113-2.064-0.113c-7.068,0-12.098,4.128-14.973,9.769c-3.004-5.888-8.131-9.707-15.608-9.707
		c-0.495,0-1,0.017-1.516,0.051c-7.436,0.49-13.823,4.937-15.836,13.604c-3.62,15.592,13.515,31.53,32.959,47.036
		C817.043,1441.045,833.177,1423.638,829.324,1408.637z"/>
	<path fill="#3FA9F5" enable-background="new    " d="M190.777,841.808c-1.879-7.318-7.79-11.953-15.922-12.832
		c-0.707-0.076-1.394-0.113-2.064-0.113c-7.068,0-12.098,4.128-14.973,9.769c-3.004-5.888-8.131-9.707-15.608-9.707
		c-0.495,0-1,0.017-1.516,0.051c-7.436,0.49-13.823,4.937-15.836,13.604c-3.62,15.592,13.515,31.53,32.959,47.036
		C178.496,874.216,194.629,856.809,190.777,841.808z"/>
	<path fill="#C1272D" enable-background="new    " d="M439.449,1270.016c-1.879-7.318-7.79-11.953-15.922-12.832
		c-0.707-0.076-1.394-0.113-2.064-0.113c-7.068,0-12.098,4.128-14.973,9.769c-3.004-5.888-8.131-9.707-15.608-9.707
		c-0.495,0-1,0.017-1.516,0.051c-7.436,0.49-13.823,4.937-15.836,13.604c-3.62,15.592,13.515,31.53,32.959,47.036
		C427.169,1302.424,443.302,1285.018,439.449,1270.016z"/>
	<path fill="#A67C52" enable-background="new    " d="M845.38,878.9c-1.879-7.318-7.79-11.953-15.922-12.832
		c-0.707-0.076-1.394-0.113-2.064-0.113c-7.068,0-12.098,4.128-14.973,9.769c-3.004-5.888-8.131-9.707-15.608-9.707
		c-0.495,0-1,0.017-1.516,0.051c-7.436,0.49-13.823,4.937-15.836,13.604c-3.62,15.592,13.515,31.53,32.959,47.036
		C833.099,911.308,849.233,893.902,845.38,878.9z"/>
	<path fill="#00A99D" enable-background="new    " d="M1289.736,1165.671c-1.88-7.318-7.79-11.953-15.922-12.832
		c-0.707-0.076-1.394-0.113-2.064-0.113c-7.068,0-12.098,4.128-14.973,9.769c-3.004-5.888-8.131-9.707-15.608-9.707
		c-0.495,0-1,0.017-1.516,0.051c-7.436,0.49-13.823,4.937-15.836,13.604c-3.62,15.592,13.515,31.53,32.959,47.036
		C1277.455,1198.079,1293.589,1180.672,1289.736,1165.671z"/>
	<path fill="#FF1D25" enable-background="new    " d="M500.911,54.792c-1.879-7.318-7.79-11.953-15.922-12.832
		c-0.707-0.076-1.394-0.113-2.064-0.113c-7.068,0-12.098,4.128-14.973,9.769c-3.004-5.888-8.131-9.707-15.608-9.707
		c-0.495,0-1,0.017-1.516,0.051c-7.436,0.49-13.823,4.937-15.836,13.604c-3.62,15.592,13.515,31.53,32.959,47.036
		C488.631,87.2,504.764,69.793,500.911,54.792z"/>
	<path fill="#998675" enable-background="new    " d="M1009.153,883.298c-1.88-7.318-7.79-11.953-15.922-12.832
		c-0.707-0.076-1.394-0.113-2.064-0.113c-7.068,0-12.098,4.128-14.973,9.769c-3.004-5.888-8.131-9.707-15.608-9.707
		c-0.495,0-1,0.017-1.516,0.051c-7.436,0.49-13.823,4.937-15.836,13.604c-3.62,15.592,13.515,31.53,32.959,47.036
		C996.873,915.706,1013.006,898.3,1009.153,883.298z"/>
	<path fill="#9E005D" enable-background="new    " d="M938.246,1317.8c-1.879-7.318-7.79-11.953-15.922-12.832
		c-0.707-0.076-1.394-0.113-2.065-0.113c-7.068,0-12.098,4.128-14.973,9.769c-3.004-5.888-8.131-9.707-15.608-9.707
		c-0.495,0-1,0.017-1.516,0.051c-7.436,0.49-13.823,4.937-15.836,13.604c-3.62,15.592,13.515,31.53,32.959,47.036
		C925.965,1350.208,942.098,1332.801,938.246,1317.8z"/>
	<path fill="#39B54A" enable-background="new    " d="M1439.329,910.49c-1.88-7.318-7.79-11.953-15.922-12.832
		c-0.707-0.076-1.394-0.113-2.064-0.113c-7.068,0-12.098,4.128-14.973,9.769c-3.004-5.888-8.131-9.707-15.608-9.707
		c-0.495,0-1,0.017-1.516,0.051c-7.436,0.49-13.823,4.937-15.836,13.604c-3.62,15.592,13.515,31.53,32.959,47.036
		C1427.048,942.898,1443.181,925.491,1439.329,910.49z"/>
	<path fill="#00A99D" enable-background="new    " d="M1245.966,477.161c-1.88-7.318-7.79-11.953-15.922-12.832
		c-0.707-0.076-1.394-0.113-2.064-0.113c-7.068,0-12.098,4.128-14.973,9.769c-3.004-5.888-8.131-9.707-15.608-9.707
		c-0.495,0-1,0.017-1.516,0.051c-7.436,0.49-13.823,4.937-15.836,13.604c-3.62,15.592,13.515,31.53,32.959,47.036
		C1233.686,509.569,1249.819,492.163,1245.966,477.161z"/>
	<path fill="#0071BC" enable-background="new    " d="M323.974,1017.119c-1.879-7.318-7.79-11.953-15.922-12.832
		c-0.707-0.076-1.394-0.113-2.064-0.113c-7.068,0-12.098,4.128-14.973,9.769c-3.004-5.888-8.131-9.707-15.608-9.707
		c-0.495,0-1,0.017-1.516,0.051c-7.436,0.49-13.823,4.937-15.836,13.604c-3.62,15.592,13.515,31.53,32.959,47.036
		C311.694,1049.527,327.827,1032.12,323.974,1017.119z"/>
	<path fill="#603813" enable-background="new    " d="M861.439,1291.747c-1.879-7.318-7.79-11.953-15.922-12.832
		c-0.707-0.076-1.394-0.113-2.064-0.113c-7.068,0-12.098,4.128-14.973,9.769c-3.004-5.888-8.131-9.707-15.608-9.707
		c-0.495,0-1,0.017-1.516,0.051c-7.436,0.49-13.823,4.937-15.836,13.604c-3.62,15.592,13.515,31.53,32.959,47.036
		C849.158,1324.155,865.291,1306.748,861.439,1291.747z"/>
	<path fill="#754C24" enable-background="new    " d="M976.786,227.183c-1.88-7.318-7.79-11.953-15.922-12.832
		c-0.707-0.076-1.394-0.113-2.064-0.113c-7.068,0-12.098,4.128-14.973,9.769c-3.004-5.888-8.131-9.707-15.608-9.707
		c-0.495,0-1,0.017-1.516,0.051c-7.436,0.49-13.823,4.937-15.836,13.604c-3.62,15.592,13.515,31.53,32.959,47.036
		C964.506,259.591,980.639,242.185,976.786,227.183z"/>
	<path fill="#00FFFF" enable-background="new    " d="M631.193,1250.805c-1.88-7.318-7.79-11.953-15.922-12.832
		c-0.707-0.076-1.394-0.113-2.064-0.113c-7.068,0-12.098,4.128-14.973,9.769c-3.004-5.888-8.131-9.707-15.608-9.707
		c-0.495,0-1,0.017-1.516,0.051c-7.436,0.49-13.823,4.937-15.836,13.604c-3.62,15.592,13.515,31.53,32.959,47.036
		C618.912,1283.213,635.045,1265.807,631.193,1250.805z"/>
	<path fill="#2E3192" enable-background="new    " d="M991.131,1006.609c-1.879-7.318-7.79-11.953-15.922-12.832
		c-0.707-0.076-1.394-0.113-2.064-0.113c-7.068,0-12.098,4.128-14.973,9.769c-3.004-5.888-8.131-9.707-15.608-9.707
		c-0.495,0-1,0.017-1.516,0.051c-7.436,0.49-13.823,4.937-15.836,13.604c-3.62,15.592,13.515,31.53,32.959,47.036
		C978.85,1039.017,994.983,1021.61,991.131,1006.609z"/>
	<path fill="#ED1C24" enable-background="new    " d="M1316.94,829.669c-1.879-7.318-7.79-11.953-15.922-12.832
		c-0.707-0.076-1.394-0.113-2.064-0.113c-7.068,0-12.098,4.128-14.973,9.769c-3.004-5.888-8.131-9.707-15.608-9.707
		c-0.495,0-1,0.017-1.516,0.051c-7.436,0.49-13.823,4.937-15.836,13.604c-3.62,15.592,13.515,31.53,32.959,47.036
		C1304.66,862.077,1320.793,844.671,1316.94,829.669z"/>
	<path fill="#009245" enable-background="new    " d="M1180.453,319.247c-1.88-7.318-7.79-11.953-15.922-12.832
		c-0.707-0.076-1.394-0.113-2.064-0.113c-7.068,0-12.098,4.128-14.973,9.769c-3.004-5.888-8.131-9.707-15.608-9.707
		c-0.495,0-1,0.017-1.516,0.051c-7.436,0.49-13.823,4.937-15.836,13.604c-3.62,15.592,13.515,31.53,32.959,47.036
		C1168.172,351.655,1184.306,334.248,1180.453,319.247z"/>
	<path fill="#2E3192" enable-background="new    " d="M1061.406,416.054c-1.88-7.318-7.79-11.953-15.922-12.832
		c-0.707-0.076-1.394-0.113-2.064-0.113c-7.068,0-12.098,4.128-14.973,9.769c-3.004-5.888-8.131-9.707-15.608-9.707
		c-0.495,0-1,0.017-1.516,0.051c-7.436,0.49-13.823,4.937-15.836,13.604c-3.62,15.592,13.515,31.53,32.959,47.036
		C1049.125,448.462,1065.258,431.055,1061.406,416.054z"/>
	<path fill="#C1272D" enable-background="new    " d="M241.86,988.723c-1.879-7.318-7.79-11.953-15.922-12.832
		c-0.707-0.076-1.394-0.113-2.064-0.113c-7.068,0-12.098,4.128-14.973,9.769c-3.004-5.888-8.131-9.707-15.608-9.707
		c-0.495,0-1,0.017-1.516,0.051c-7.436,0.49-13.823,4.937-15.836,13.604c-3.62,15.592,13.515,31.53,32.959,47.036
		C229.579,1021.131,245.712,1003.724,241.86,988.723z"/>
	<path fill="#F15A24" enable-background="new    " d="M1324.491,1373.534c-1.879-7.318-7.79-11.953-15.922-12.832
		c-0.707-0.076-1.394-0.114-2.064-0.114c-7.068,0-12.098,4.128-14.973,9.77c-3.004-5.888-8.131-9.707-15.608-9.707
		c-0.495,0-1,0.017-1.516,0.051c-7.436,0.49-13.823,4.937-15.836,13.604c-3.62,15.592,13.515,31.53,32.959,47.036
		C1312.211,1405.942,1328.344,1388.536,1324.491,1373.534z"/>
	<path fill="#006837" enable-background="new    " d="M1499.945,860.467c-1.88-7.318-7.79-11.953-15.922-12.832
		c-0.707-0.076-1.394-0.113-2.064-0.113c-7.068,0-12.098,4.128-14.973,9.769c-3.004-5.888-8.131-9.707-15.608-9.707
		c-0.495,0-1,0.017-1.516,0.051c-7.436,0.49-13.823,4.937-15.836,13.604c-3.62,15.592,13.515,31.53,32.959,47.036
		C1487.665,892.875,1503.798,875.468,1499.945,860.467z"/>
	<path fill="#736357" enable-background="new    " d="M682.063,1043.134c-1.88-7.318-7.79-11.953-15.922-12.832
		c-0.707-0.076-1.394-0.113-2.064-0.113c-7.068,0-12.098,4.128-14.973,9.769c-3.004-5.888-8.131-9.707-15.608-9.707
		c-0.495,0-1,0.017-1.516,0.051c-7.436,0.49-13.823,4.937-15.836,13.604c-3.62,15.592,13.515,31.53,32.959,47.036
		C669.782,1075.542,685.915,1058.135,682.063,1043.134z"/>
	<path fill="#1B1464" enable-background="new    " d="M708.642,1290.437c-1.88-7.318-7.79-11.953-15.922-12.832
		c-0.707-0.076-1.394-0.113-2.064-0.113c-7.068,0-12.098,4.128-14.973,9.769c-3.004-5.888-8.131-9.707-15.608-9.707
		c-0.495,0-1,0.017-1.516,0.051c-7.436,0.49-13.823,4.937-15.836,13.604c-3.62,15.592,13.515,31.53,32.959,47.036
		C696.361,1322.845,712.494,1305.438,708.642,1290.437z"/>
	<path fill="#FFFF00" enable-background="new    " d="M861.497,1109.15c-1.879-7.318-7.79-11.953-15.922-12.832
		c-0.707-0.076-1.394-0.113-2.065-0.113c-7.068,0-12.098,4.128-14.973,9.769c-3.004-5.888-8.131-9.707-15.608-9.707
		c-0.495,0-1,0.017-1.516,0.051c-7.436,0.49-13.823,4.937-15.836,13.604c-3.62,15.592,13.515,31.53,32.959,47.036
		C849.216,1141.558,865.349,1124.152,861.497,1109.15z"/>
	<path fill="#22B573" enable-background="new    " d="M1343.092,757.777c-1.879-7.318-7.79-11.953-15.922-12.832
		c-0.707-0.076-1.394-0.113-2.065-0.113c-7.068,0-12.098,4.128-14.973,9.769c-3.004-5.888-8.131-9.707-15.608-9.707
		c-0.495,0-1,0.017-1.516,0.051c-7.436,0.49-13.823,4.937-15.836,13.604c-3.62,15.592,13.515,31.53,32.959,47.036
		C1330.811,790.185,1346.945,772.779,1343.092,757.777z"/>
	<path fill="#2E3192" enable-background="new    " d="M1024.936,1468.075c-1.879-7.318-7.79-11.953-15.922-12.832
		c-0.707-0.076-1.394-0.113-2.064-0.113c-7.068,0-12.098,4.128-14.973,9.77c-3.004-5.888-8.131-9.707-15.608-9.707
		c-0.495,0-1,0.017-1.516,0.051c-7.436,0.49-13.823,4.937-15.836,13.604c-3.62,15.592,13.515,31.53,32.959,47.036
		C1012.656,1500.483,1028.789,1483.076,1024.936,1468.075z"/>
	<path fill="#00A99D" enable-background="new    " d="M976.411,940.79c-1.88-7.318-7.79-11.953-15.922-12.832
		c-0.707-0.076-1.394-0.113-2.064-0.113c-7.068,0-12.098,4.128-14.973,9.769c-3.004-5.888-8.131-9.707-15.608-9.707
		c-0.495,0-1,0.017-1.516,0.051c-7.436,0.49-13.823,4.937-15.836,13.604c-3.62,15.592,13.515,31.53,32.959,47.036
		C964.13,973.198,980.264,955.791,976.411,940.79z"/>
	<path fill="#9E005D" enable-background="new    " d="M788.545,1059.392c-1.88-7.318-7.79-11.953-15.922-12.832
		c-0.707-0.076-1.394-0.113-2.064-0.113c-7.068,0-12.098,4.128-14.973,9.769c-3.004-5.888-8.131-9.707-15.608-9.707
		c-0.495,0-1,0.017-1.516,0.051c-7.436,0.49-13.823,4.937-15.836,13.604c-3.62,15.592,13.515,31.53,32.959,47.036
		C776.265,1091.8,792.398,1074.394,788.545,1059.392z"/>
	<path fill="#0071BC" enable-background="new    " d="M397.449,977.53c-1.879-7.318-7.79-11.953-15.922-12.832
		c-0.707-0.076-1.394-0.113-2.064-0.113c-7.068,0-12.098,4.128-14.973,9.769c-3.004-5.888-8.131-9.707-15.608-9.707
		c-0.495,0-1,0.017-1.516,0.051c-7.436,0.49-13.823,4.937-15.836,13.604c-3.62,15.592,13.515,31.53,32.959,47.036
		C385.168,1009.938,401.301,992.532,397.449,977.53z"/>
	<path fill="#FCEE21" enable-background="new    " d="M1340.687,1450.499c-1.88-7.318-7.79-11.953-15.922-12.832
		c-0.707-0.076-1.394-0.113-2.064-0.113c-7.068,0-12.098,4.128-14.973,9.769c-3.004-5.888-8.131-9.707-15.608-9.707
		c-0.495,0-1,0.017-1.516,0.051c-7.436,0.49-13.823,4.937-15.836,13.604c-3.62,15.592,13.515,31.53,32.959,47.036
		C1328.406,1482.907,1344.539,1465.5,1340.687,1450.499z"/>
	<path fill="#3FA9F5" enable-background="new    " d="M536.179,1251.042c-1.88-7.318-7.79-11.953-15.922-12.832
		c-0.707-0.076-1.394-0.113-2.064-0.113c-7.068,0-12.098,4.128-14.973,9.769c-3.004-5.888-8.131-9.707-15.608-9.707
		c-0.495,0-1,0.017-1.516,0.051c-7.436,0.49-13.823,4.937-15.836,13.604c-3.62,15.592,13.515,31.53,32.959,47.036
		C523.898,1283.45,540.031,1266.044,536.179,1251.042z"/>
	<path fill="#7AC943" enable-background="new    " d="M1157.027,198.126c-1.88-7.318-7.79-11.953-15.922-12.832
		c-0.707-0.076-1.394-0.113-2.064-0.113c-7.068,0-12.098,4.128-14.973,9.769c-3.004-5.888-8.131-9.707-15.608-9.707
		c-0.495,0-1,0.017-1.516,0.051c-7.436,0.49-13.823,4.937-15.836,13.604c-3.62,15.592,13.515,31.53,32.959,47.036
		C1144.746,230.534,1160.88,213.128,1157.027,198.126z"/>
	<path fill="#29ABE2" enable-background="new    " d="M1528.248,955.117c-1.88-7.318-7.79-11.953-15.922-12.832
		c-0.707-0.076-1.394-0.113-2.064-0.113c-7.068,0-12.098,4.128-14.973,9.769c-3.004-5.888-8.131-9.707-15.608-9.707
		c-0.495,0-1,0.017-1.516,0.051c-7.436,0.49-13.823,4.937-15.836,13.604c-3.62,15.592,13.515,31.53,32.959,47.036
		C1515.968,987.525,1532.101,970.118,1528.248,955.117z"/>
	<path fill="#0000FF" enable-background="new    " d="M1127.058,1422.172c-1.88-7.318-7.79-11.953-15.922-12.832
		c-0.707-0.076-1.394-0.113-2.064-0.113c-7.068,0-12.098,4.128-14.973,9.769c-3.004-5.888-8.131-9.707-15.608-9.707
		c-0.495,0-1,0.017-1.516,0.051c-7.436,0.49-13.823,4.937-15.836,13.604c-3.62,15.592,13.515,31.53,32.959,47.036
		C1114.778,1454.579,1130.911,1437.173,1127.058,1422.172z"/>
	<path fill="#F15A24" enable-background="new    " d="M1242.608,1404.391c-1.88-7.318-7.79-11.953-15.922-12.832
		c-0.707-0.076-1.394-0.113-2.064-0.113c-7.068,0-12.098,4.128-14.973,9.769c-3.004-5.888-8.131-9.707-15.608-9.707
		c-0.495,0-1,0.017-1.516,0.051c-7.436,0.49-13.823,4.937-15.836,13.604c-3.62,15.592,13.515,31.53,32.959,47.036
		C1230.328,1436.799,1246.461,1419.392,1242.608,1404.391z"/>
	<path fill="#FF7BAC" enable-background="new    " d="M635.49,973.118c-1.879-7.318-7.79-11.953-15.922-12.832
		c-0.707-0.076-1.394-0.113-2.064-0.113c-7.068,0-12.098,4.128-14.973,9.769c-3.004-5.888-8.131-9.707-15.608-9.707
		c-0.495,0-1,0.017-1.516,0.051c-7.436,0.49-13.823,4.937-15.836,13.604c-3.62,15.592,13.515,31.53,32.959,47.036
		C623.21,1005.526,639.343,988.119,635.49,973.118z"/>
	<path fill="#D4145A" enable-background="new    " d="M462.491,423.845c-1.879-7.318-7.79-11.953-15.922-12.832
		c-0.707-0.076-1.394-0.113-2.064-0.113c-7.068,0-12.098,4.128-14.973,9.769c-3.004-5.888-8.131-9.707-15.608-9.707
		c-0.495,0-1,0.017-1.516,0.051c-7.436,0.49-13.823,4.937-15.836,13.604c-3.62,15.592,13.515,31.53,32.959,47.036
		C450.211,456.253,466.344,438.846,462.491,423.845z"/>
	<path fill="#534741" enable-background="new    " d="M933.389,1160.126c-1.879-7.318-7.79-11.953-15.922-12.832
		c-0.707-0.076-1.394-0.113-2.065-0.113c-7.068,0-12.098,4.128-14.973,9.77c-3.004-5.888-8.131-9.707-15.608-9.707
		c-0.495,0-1,0.017-1.516,0.051c-7.436,0.49-13.823,4.937-15.836,13.604c-3.62,15.592,13.515,31.53,32.959,47.036
		C921.108,1192.534,937.241,1175.127,933.389,1160.126z"/>
	<path fill="#F15A24" enable-background="new    " d="M1224.569,250.274c-1.88-7.318-7.79-11.953-15.922-12.832
		c-0.707-0.076-1.394-0.113-2.064-0.113c-7.068,0-12.098,4.128-14.973,9.769c-3.004-5.888-8.131-9.707-15.608-9.707
		c-0.495,0-1,0.017-1.516,0.051c-7.436,0.49-13.823,4.937-15.836,13.604c-3.62,15.592,13.515,31.53,32.959,47.036
		C1212.289,282.682,1228.422,265.275,1224.569,250.274z"/>
	<path fill="#A67C52" enable-background="new    " d="M1161.706,1094.545c-1.879-7.318-7.79-11.953-15.922-12.832
		c-0.707-0.076-1.394-0.113-2.065-0.113c-7.068,0-12.098,4.128-14.973,9.77c-3.004-5.888-8.131-9.707-15.608-9.707
		c-0.495,0-1,0.017-1.516,0.051c-7.436,0.49-13.823,4.937-15.836,13.604c-3.62,15.592,13.515,31.53,32.959,47.036
		C1149.426,1126.953,1165.559,1109.547,1161.706,1094.545z"/>
	<path fill="#22B573" enable-background="new    " d="M1211.346,396.228c-1.879-7.318-7.79-11.953-15.922-12.832
		c-0.707-0.076-1.394-0.113-2.064-0.113c-7.068,0-12.098,4.128-14.973,9.769c-3.004-5.888-8.131-9.707-15.608-9.707
		c-0.495,0-1,0.017-1.516,0.051c-7.436,0.49-13.823,4.937-15.836,13.604c-3.62,15.592,13.515,31.53,32.959,47.036
		C1199.065,428.636,1215.198,411.23,1211.346,396.228z"/>
	<path fill="#8CC63F" enable-background="new    " d="M1089.517,1032.042c-1.88-7.318-7.79-11.953-15.922-12.832
		c-0.707-0.076-1.394-0.113-2.064-0.113c-7.068,0-12.098,4.128-14.973,9.769c-3.004-5.888-8.131-9.707-15.608-9.707
		c-0.495,0-1,0.017-1.516,0.051c-7.436,0.49-13.823,4.937-15.836,13.604c-3.62,15.592,13.515,31.53,32.959,47.036
		C1077.237,1064.45,1093.37,1047.044,1089.517,1032.042z"/>
	<path fill="#ED1E79" enable-background="new    " d="M572.162,544.423c-1.879-7.318-7.79-11.953-15.922-12.832
		c-0.707-0.076-1.394-0.113-2.064-0.113c-7.068,0-12.098,4.128-14.973,9.769c-3.004-5.888-8.131-9.707-15.608-9.707
		c-0.495,0-1,0.017-1.516,0.051c-7.436,0.49-13.823,4.937-15.836,13.604c-3.62,15.592,13.515,31.53,32.959,47.036
		C559.881,576.831,576.014,559.425,572.162,544.423z"/>
	<path fill="#C1272D" enable-background="new    " d="M1030.944,1077.36c-1.88-7.318-7.79-11.953-15.922-12.832
		c-0.707-0.076-1.394-0.113-2.064-0.113c-7.068,0-12.098,4.128-14.973,9.77c-3.004-5.888-8.131-9.707-15.608-9.707
		c-0.495,0-1,0.017-1.516,0.051c-7.436,0.49-13.823,4.937-15.836,13.604c-3.62,15.592,13.515,31.53,32.959,47.036
		C1018.663,1109.768,1034.796,1092.362,1030.944,1077.36z"/>
	<path fill="#1B1464" enable-background="new    " d="M227.651,718.864c-1.879-7.318-7.79-11.953-15.922-12.832
		c-0.707-0.076-1.394-0.113-2.064-0.113c-7.068,0-12.098,4.128-14.973,9.769c-3.004-5.888-8.131-9.707-15.608-9.707
		c-0.495,0-1,0.017-1.516,0.051c-7.436,0.49-13.823,4.937-15.836,13.604c-3.62,15.592,13.515,31.53,32.959,47.036
		C215.37,751.272,231.503,733.865,227.651,718.864z"/>
	<path fill="#FBB03B" enable-background="new    " d="M992.958,469.448c-1.879-7.318-7.79-11.953-15.922-12.832
		c-0.707-0.076-1.394-0.113-2.064-0.113c-7.068,0-12.098,4.128-14.973,9.769c-3.004-5.888-8.131-9.707-15.608-9.707
		c-0.495,0-1,0.017-1.516,0.051c-7.436,0.49-13.823,4.937-15.836,13.604c-3.62,15.592,13.515,31.53,32.959,47.036
		C980.678,501.856,996.811,484.45,992.958,469.448z"/>
	<path fill="#00A99D" enable-background="new    " d="M1108.454,1205.01c-1.88-7.318-7.79-11.953-15.922-12.832
		c-0.707-0.076-1.394-0.113-2.064-0.113c-7.068,0-12.098,4.128-14.973,9.769c-3.004-5.888-8.131-9.707-15.608-9.707
		c-0.495,0-1,0.017-1.516,0.051c-7.436,0.49-13.823,4.937-15.836,13.604c-3.62,15.592,13.515,31.53,32.959,47.036
		C1096.174,1237.418,1112.307,1220.011,1108.454,1205.01z"/>
	<path fill="#C69C6D" enable-background="new    " d="M892.649,1377.712c-1.88-7.318-7.79-11.953-15.922-12.832
		c-0.707-0.076-1.394-0.113-2.064-0.113c-7.068,0-12.098,4.128-14.973,9.77c-3.004-5.888-8.131-9.707-15.608-9.707
		c-0.495,0-1,0.017-1.516,0.051c-7.436,0.49-13.823,4.937-15.836,13.604c-3.62,15.592,13.515,31.53,32.959,47.036
		C880.369,1410.12,896.502,1392.714,892.649,1377.712z"/>
	<path fill="#2E3192" enable-background="new    " d="M1017.146,1151.134c-1.88-7.318-7.79-11.953-15.922-12.832
		c-0.707-0.076-1.394-0.113-2.064-0.113c-7.068,0-12.098,4.128-14.973,9.769c-3.004-5.888-8.131-9.707-15.608-9.707
		c-0.495,0-1,0.017-1.516,0.051c-7.436,0.49-13.823,4.937-15.836,13.604c-3.62,15.592,13.515,31.53,32.959,47.036
		C1004.865,1183.542,1020.998,1166.136,1017.146,1151.134z"/>
	<path fill="#8C6239" enable-background="new    " d="M1568.054,513.856c-1.879-7.318-7.79-11.953-15.922-12.832
		c-0.707-0.076-1.394-0.113-2.064-0.113c-7.068,0-12.098,4.128-14.973,9.769c-3.004-5.888-8.131-9.707-15.608-9.707
		c-0.495,0-1,0.017-1.516,0.051c-7.436,0.49-13.823,4.937-15.836,13.604c-3.62,15.592,13.515,31.53,32.959,47.036
		C1555.773,546.264,1571.906,528.858,1568.054,513.856z"/>
	<path fill="#FF7BAC" enable-background="new    " d="M1666.682,624.489c-1.879-7.318-7.79-11.953-15.922-12.832
		c-0.707-0.076-1.394-0.113-2.064-0.113c-7.068,0-12.098,4.128-14.973,9.769c-3.004-5.888-8.131-9.707-15.608-9.707
		c-0.495,0-1,0.017-1.516,0.051c-7.436,0.49-13.823,4.937-15.836,13.604c-3.62,15.592,13.515,31.53,32.959,47.036
		C1654.401,656.897,1670.534,639.49,1666.682,624.489z"/>
	<path fill="#A67C52" enable-background="new    " d="M1519.571,707.65c-1.879-7.318-7.79-11.953-15.922-12.832
		c-0.707-0.076-1.394-0.113-2.064-0.113c-7.068,0-12.098,4.128-14.973,9.769c-3.004-5.888-8.131-9.707-15.608-9.707
		c-0.495,0-1,0.017-1.516,0.051c-7.436,0.49-13.823,4.937-15.836,13.604c-3.62,15.592,13.515,31.53,32.959,47.036
		C1507.29,740.058,1523.423,722.652,1519.571,707.65z"/>
	<path fill="#7AC943" enable-background="new    " d="M120.088,873.423c-1.879-7.318-7.79-11.953-15.922-12.832
		c-0.707-0.076-1.394-0.113-2.064-0.113c-7.068,0-12.098,4.128-14.973,9.769c-3.004-5.888-8.131-9.707-15.608-9.707
		c-0.495,0-1,0.017-1.516,0.051c-7.436,0.49-13.823,4.937-15.836,13.604c-3.62,15.592,13.515,31.53,32.959,47.036
		C107.807,905.831,123.94,888.424,120.088,873.423z"/>
	<path fill="#00A99D" enable-background="new    " d="M676.728,435.917c-1.879-7.318-7.79-11.953-15.922-12.832
		c-0.707-0.076-1.394-0.113-2.065-0.113c-7.068,0-12.098,4.128-14.973,9.769c-3.004-5.888-8.131-9.707-15.608-9.707
		c-0.495,0-1,0.017-1.516,0.051c-7.436,0.49-13.823,4.937-15.836,13.604c-3.62,15.592,13.515,31.53,32.959,47.036
		C664.448,468.325,680.581,450.919,676.728,435.917z"/>
	<path fill="#736357" enable-background="new    " d="M338.378,629.958c-1.879-7.318-7.79-11.953-15.922-12.832
		c-0.707-0.076-1.394-0.113-2.064-0.113c-7.068,0-12.098,4.128-14.973,9.769c-3.004-5.888-8.131-9.707-15.608-9.707
		c-0.495,0-1,0.017-1.516,0.051c-7.436,0.49-13.823,4.937-15.836,13.604c-3.62,15.592,13.515,31.53,32.959,47.036
		C326.098,662.365,342.231,644.959,338.378,629.958z"/>
	<path fill="#29ABE2" enable-background="new    " d="M255.515,896.333c-1.879-7.318-7.79-11.953-15.922-12.832
		c-0.707-0.076-1.394-0.113-2.064-0.113c-7.068,0-12.098,4.128-14.973,9.769c-3.004-5.888-8.131-9.707-15.608-9.707
		c-0.495,0-1,0.017-1.516,0.051c-7.436,0.49-13.823,4.937-15.836,13.604c-3.62,15.592,13.515,31.53,32.959,47.036
		C243.235,928.741,259.368,911.335,255.515,896.333z"/>
	<path fill="#7AC943" enable-background="new    " d="M426.807,832.501c-1.879-7.318-7.79-11.953-15.922-12.832
		c-0.707-0.076-1.394-0.113-2.064-0.113c-7.068,0-12.098,4.128-14.973,9.769c-3.004-5.888-8.131-9.707-15.608-9.707
		c-0.495,0-1,0.017-1.516,0.051c-7.436,0.49-13.823,4.937-15.836,13.604c-3.62,15.592,13.515,31.53,32.959,47.036
		C414.527,864.909,430.66,847.503,426.807,832.501z"/>
	<path fill="#ED1C24" enable-background="new    " d="M457.056,120.831c-1.879-7.318-7.79-11.953-15.922-12.832
		c-0.707-0.076-1.394-0.113-2.064-0.113c-7.068,0-12.098,4.128-14.973,9.769c-3.004-5.888-8.131-9.707-15.608-9.707
		c-0.495,0-1,0.017-1.516,0.051c-7.436,0.49-13.823,4.937-15.836,13.604c-3.62,15.592,13.515,31.53,32.959,47.036
		C444.775,153.239,460.909,135.832,457.056,120.831z"/>
	<path fill="#93278F" enable-background="new    " d="M652.226,560.135c-1.88-7.318-7.79-11.953-15.922-12.832
		c-0.707-0.076-1.394-0.113-2.064-0.113c-7.068,0-12.098,4.128-14.973,9.769c-3.004-5.888-8.131-9.707-15.608-9.707
		c-0.495,0-1,0.017-1.516,0.051c-7.436,0.49-13.823,4.937-15.836,13.604c-3.62,15.592,13.515,31.53,32.959,47.036
		C639.946,592.543,656.079,575.136,652.226,560.135z"/>
	<path fill="#FF1D25" enable-background="new    " d="M1311.25,1296.802c-1.88-7.318-7.79-11.953-15.922-12.832
		c-0.707-0.076-1.394-0.113-2.064-0.113c-7.068,0-12.098,4.128-14.973,9.769c-3.004-5.888-8.131-9.707-15.608-9.707
		c-0.495,0-1,0.017-1.516,0.051c-7.436,0.49-13.823,4.937-15.836,13.604c-3.62,15.592,13.515,31.53,32.959,47.036
		C1298.969,1329.21,1315.102,1311.803,1311.25,1296.802z"/>
	<path fill="#754C24" enable-background="new    " d="M1116.382,565.426c-1.88-7.318-7.79-11.953-15.922-12.832
		c-0.707-0.076-1.394-0.113-2.064-0.113c-7.068,0-12.098,4.128-14.973,9.769c-3.004-5.888-8.131-9.707-15.608-9.707
		c-0.495,0-1,0.017-1.516,0.051c-7.436,0.49-13.823,4.937-15.836,13.604c-3.62,15.592,13.515,31.53,32.959,47.036
		C1104.102,597.833,1120.235,580.427,1116.382,565.426z"/>
	<path fill="#22B573" enable-background="new    " d="M1487.776,630.8c-1.879-7.318-7.79-11.953-15.922-12.832
		c-0.707-0.076-1.394-0.113-2.065-0.113c-7.068,0-12.098,4.128-14.973,9.769c-3.004-5.888-8.131-9.707-15.608-9.707
		c-0.495,0-1,0.017-1.516,0.051c-7.436,0.49-13.823,4.937-15.836,13.604c-3.62,15.592,13.515,31.53,32.959,47.036
		C1475.495,663.208,1491.629,645.802,1487.776,630.8z"/>
	<path fill="#00A99D" enable-background="new    " d="M898.418,950.997c-1.879-7.318-7.79-11.953-15.922-12.832
		c-0.707-0.076-1.394-0.113-2.065-0.113c-7.068,0-12.098,4.128-14.973,9.769c-3.004-5.888-8.131-9.707-15.608-9.707
		c-0.495,0-1,0.017-1.516,0.051c-7.436,0.49-13.823,4.937-15.836,13.604c-3.62,15.592,13.515,31.53,32.959,47.036
		C886.138,983.405,902.271,965.998,898.418,950.997z"/>
	<path fill="#FF7BAC" enable-background="new    " d="M1315.724,186.057c-1.88-7.318-7.79-11.953-15.922-12.832
		c-0.707-0.076-1.394-0.113-2.064-0.113c-7.068,0-12.098,4.128-14.973,9.769c-3.004-5.888-8.131-9.707-15.608-9.707
		c-0.495,0-1,0.017-1.516,0.051c-7.436,0.49-13.823,4.937-15.836,13.604c-3.62,15.592,13.515,31.53,32.959,47.036
		C1303.444,218.464,1319.577,201.058,1315.724,186.057z"/>
	<path fill="#8CC63F" enable-background="new    " d="M163.749,760.645c-1.879-7.318-7.79-11.953-15.922-12.832
		c-0.707-0.076-1.394-0.113-2.064-0.113c-7.068,0-12.098,4.128-14.973,9.769c-3.004-5.888-8.131-9.707-15.608-9.707
		c-0.495,0-1,0.017-1.516,0.051c-7.436,0.49-13.823,4.937-15.836,13.604c-3.62,15.592,13.515,31.53,32.959,47.036
		C151.468,793.053,167.602,775.646,163.749,760.645z"/>
	<path fill="#A67C52" enable-background="new    " d="M524.347,1105.59c-1.88-7.318-7.79-11.953-15.922-12.832
		c-0.707-0.076-1.394-0.113-2.064-0.113c-7.068,0-12.098,4.128-14.973,9.77c-3.004-5.888-8.131-9.707-15.608-9.707
		c-0.495,0-1,0.017-1.516,0.051c-7.436,0.49-13.823,4.937-15.836,13.604c-3.62,15.592,13.515,31.53,32.959,47.036
		C512.066,1137.999,528.199,1120.592,524.347,1105.59z"/>
	<path fill="#FF931E" enable-background="new    " d="M426.128,190.339c-1.879-7.318-7.79-11.953-15.922-12.832
		c-0.707-0.076-1.394-0.113-2.064-0.113c-7.068,0-12.098,4.128-14.973,9.769c-3.004-5.888-8.131-9.707-15.608-9.707
		c-0.495,0-1,0.017-1.516,0.051c-7.436,0.49-13.823,4.937-15.836,13.604c-3.62,15.592,13.515,31.53,32.959,47.036
		C413.848,222.747,429.981,205.34,426.128,190.339z"/>
	<path fill="#C7B299" enable-background="new    " d="M1594.245,739.58c-1.88-7.318-7.79-11.953-15.922-12.832
		c-0.707-0.076-1.394-0.113-2.064-0.113c-7.068,0-12.098,4.128-14.973,9.769c-3.004-5.888-8.131-9.707-15.608-9.707
		c-0.495,0-1,0.017-1.516,0.051c-7.436,0.49-13.823,4.937-15.836,13.604c-3.62,15.592,13.515,31.53,32.959,47.036
		C1581.964,771.988,1598.097,754.582,1594.245,739.58z"/>
	<path fill="#ED1E79" enable-background="new    " d="M1321.313,334.95c-1.88-7.318-7.79-11.953-15.922-12.832
		c-0.707-0.076-1.394-0.113-2.064-0.113c-7.068,0-12.098,4.128-14.973,9.769c-3.004-5.888-8.131-9.707-15.608-9.707
		c-0.495,0-1,0.017-1.516,0.051c-7.436,0.49-13.823,4.937-15.836,13.604c-3.62,15.592,13.515,31.53,32.959,47.036
		C1309.032,367.358,1325.165,349.951,1321.313,334.95z"/>
</g>
<g id="Red_Heart">
</g>
</svg>
